<?xml version="1.0" encoding="UTF-8"?>
<!DOCTYPE svg PUBLIC "-//W3C//DTD SVG 1.1//EN" "http://www.w3.org/Graphics/SVG/1.1/DTD/svg11.dtd">
<svg version="1.1" xmlns="http://www.w3.org/2000/svg" xmlns:xlink="http://www.w3.org/1999/xlink" x="0" y="0" width="600" height="510" viewBox="0, 0, 600, 510">
  <g id="Background">
    <rect x="0" y="0" width="600" height="510" fill="#000000" fill-opacity="0"/>
  </g>
  <g id="Layer_1">
    <g>
      <path d="M15.5,15.5 L45.5,15.5 L45.5,45.5 L15.5,45.5 L15.5,15.5 z" fill="#9D9E9E"/>
      <path d="M15.5,15.5 L45.5,15.5 L45.5,45.5 L15.5,45.5 L15.5,15.5 z" fill-opacity="0" stroke="#294270" stroke-width="2"/>
    </g>
    <g>
      <path d="M45.5,15.5 L75.5,15.5 L75.5,45.5 L45.5,45.5 L45.5,15.5 z" fill="#9D9E9E"/>
      <path d="M45.5,15.5 L75.5,15.5 L75.5,45.5 L45.5,45.5 L45.5,15.5 z" fill-opacity="0" stroke="#294270" stroke-width="2"/>
    </g>
    <g>
      <path d="M75.5,15.5 L105.5,15.5 L105.5,45.5 L75.5,45.5 L75.5,15.5 z" fill="#9D9E9E"/>
      <path d="M75.5,15.5 L105.5,15.5 L105.5,45.5 L75.5,45.5 L75.5,15.5 z" fill-opacity="0" stroke="#294270" stroke-width="2"/>
    </g>
    <g>
      <path d="M105.5,15.5 L135.5,15.5 L135.5,45.5 L105.5,45.5 L105.5,15.5 z" fill="#9D9E9E"/>
      <path d="M105.5,15.5 L135.5,15.5 L135.5,45.5 L105.5,45.5 L105.5,15.5 z" fill-opacity="0" stroke="#294270" stroke-width="2"/>
    </g>
    <g>
      <path d="M135.5,15.5 L165.5,15.5 L165.5,45.5 L135.5,45.5 L135.5,15.5 z" fill="#9D9E9E"/>
      <path d="M135.5,15.5 L165.5,15.5 L165.5,45.5 L135.5,45.5 L135.5,15.5 z" fill-opacity="0" stroke="#294270" stroke-width="2"/>
    </g>
    <g>
      <path d="M165.5,15.5 L195.5,15.5 L195.5,45.5 L165.5,45.5 L165.5,15.5 z" fill="#9D9E9E"/>
      <path d="M165.5,15.5 L195.5,15.5 L195.5,45.5 L165.5,45.5 L165.5,15.5 z" fill-opacity="0" stroke="#294270" stroke-width="2"/>
    </g>
    <g>
      <path d="M195.5,15.5 L225.5,15.5 L225.5,45.5 L195.5,45.5 L195.5,15.5 z" fill="#9D9E9E"/>
      <path d="M195.5,15.5 L225.5,15.5 L225.5,45.5 L195.5,45.5 L195.5,15.5 z" fill-opacity="0" stroke="#294270" stroke-width="2"/>
    </g>
    <g>
      <path d="M225.5,15.5 L255.5,15.5 L255.5,45.5 L225.5,45.5 L225.5,15.5 z" fill="#9D9E9E"/>
      <path d="M225.5,15.5 L255.5,15.5 L255.5,45.5 L225.5,45.5 L225.5,15.5 z" fill-opacity="0" stroke="#294270" stroke-width="2"/>
    </g>
    <g>
      <path d="M255.5,15.5 L285.5,15.5 L285.5,45.5 L255.5,45.5 L255.5,15.5 z" fill="#9D9E9E"/>
      <path d="M255.5,15.5 L285.5,15.5 L285.5,45.5 L255.5,45.5 L255.5,15.5 z" fill-opacity="0" stroke="#294270" stroke-width="2"/>
    </g>
    <g>
      <path d="M285.5,15.5 L315.5,15.5 L315.5,45.5 L285.5,45.5 L285.5,15.5 z" fill="#9D9E9E"/>
      <path d="M285.5,15.5 L315.5,15.5 L315.5,45.5 L285.5,45.5 L285.5,15.5 z" fill-opacity="0" stroke="#294270" stroke-width="2"/>
    </g>
    <g>
      <path d="M315.5,15.5 L345.5,15.5 L345.5,45.5 L315.5,45.5 L315.5,15.5 z" fill="#9D9E9E"/>
      <path d="M315.5,15.5 L345.5,15.5 L345.5,45.5 L315.5,45.5 L315.5,15.5 z" fill-opacity="0" stroke="#294270" stroke-width="2"/>
    </g>
    <g>
      <path d="M345.5,15.5 L375.5,15.5 L375.5,45.5 L345.5,45.5 L345.5,15.5 z" fill="#9D9E9E"/>
      <path d="M345.5,15.5 L375.5,15.5 L375.5,45.5 L345.5,45.5 L345.5,15.5 z" fill-opacity="0" stroke="#294270" stroke-width="2"/>
    </g>
    <g>
      <path d="M255.5,15.5 L285.5,15.5 L285.5,45.5 L255.5,45.5 L255.5,15.5 z" fill="#9D9E9E"/>
      <path d="M255.5,15.5 L285.5,15.5 L285.5,45.5 L255.5,45.5 L255.5,15.5 z" fill-opacity="0" stroke="#294270" stroke-width="2"/>
    </g>
    <g>
      <path d="M285.5,15.5 L315.5,15.5 L315.5,45.5 L285.5,45.5 L285.5,15.5 z" fill="#9D9E9E"/>
      <path d="M285.5,15.5 L315.5,15.5 L315.5,45.5 L285.5,45.5 L285.5,15.5 z" fill-opacity="0" stroke="#294270" stroke-width="2"/>
    </g>
    <g>
      <path d="M315.5,15.5 L345.5,15.5 L345.5,45.5 L315.5,45.5 L315.5,15.5 z" fill="#9D9E9E"/>
      <path d="M315.5,15.5 L345.5,15.5 L345.5,45.5 L315.5,45.5 L315.5,15.5 z" fill-opacity="0" stroke="#294270" stroke-width="2"/>
    </g>
    <g>
      <path d="M345.5,15.5 L375.5,15.5 L375.5,45.5 L345.5,45.5 L345.5,15.5 z" fill="#9D9E9E"/>
      <path d="M345.5,15.5 L375.5,15.5 L375.5,45.5 L345.5,45.5 L345.5,15.5 z" fill-opacity="0" stroke="#294270" stroke-width="2"/>
    </g>
    <g>
      <path d="M15.5,45.5 L45.5,45.5 L45.5,75.5 L15.5,75.5 L15.5,45.5 z" fill="#9D9E9E"/>
      <path d="M15.5,45.5 L45.5,45.5 L45.5,75.5 L15.5,75.5 L15.5,45.5 z" fill-opacity="0" stroke="#294270" stroke-width="2"/>
    </g>
    <g>
      <path d="M45.5,45.5 L75.5,45.5 L75.5,75.5 L45.5,75.5 L45.5,45.5 z" fill="#9D9E9E"/>
      <path d="M45.5,45.5 L75.5,45.5 L75.5,75.5 L45.5,75.5 L45.5,45.5 z" fill-opacity="0" stroke="#294270" stroke-width="2"/>
    </g>
    <g>
      <path d="M75.5,45.5 L105.5,45.5 L105.5,75.5 L75.5,75.5 L75.5,45.5 z" fill="#9D9E9E"/>
      <path d="M75.5,45.5 L105.5,45.5 L105.5,75.5 L75.5,75.5 L75.5,45.5 z" fill-opacity="0" stroke="#294270" stroke-width="2"/>
    </g>
    <g>
      <path d="M105.5,45.5 L135.5,45.5 L135.5,75.5 L105.5,75.5 L105.5,45.5 z" fill="#294270"/>
      <path d="M105.5,45.5 L135.5,45.5 L135.5,75.5 L105.5,75.5 L105.5,45.5 z" fill-opacity="0" stroke="#294270" stroke-width="2"/>
    </g>
    <g>
      <path d="M135.5,45.5 L165.5,45.5 L165.5,75.5 L135.5,75.5 L135.5,45.5 z" fill="#294270"/>
      <path d="M135.5,45.5 L165.5,45.5 L165.5,75.5 L135.5,75.5 L135.5,45.5 z" fill-opacity="0" stroke="#294270" stroke-width="2"/>
    </g>
    <g>
      <path d="M165.5,45.5 L195.5,45.5 L195.5,75.5 L165.5,75.5 L165.5,45.5 z" fill="#294270"/>
      <path d="M165.5,45.5 L195.5,45.5 L195.5,75.5 L165.5,75.5 L165.5,45.5 z" fill-opacity="0" stroke="#294270" stroke-width="2"/>
    </g>
    <g>
      <path d="M195.5,45.5 L225.5,45.5 L225.5,75.5 L195.5,75.5 L195.5,45.5 z" fill="#9D9E9E"/>
      <path d="M195.5,45.5 L225.5,45.5 L225.5,75.5 L195.5,75.5 L195.5,45.5 z" fill-opacity="0" stroke="#294270" stroke-width="2"/>
    </g>
    <g>
      <path d="M225.5,45.5 L255.5,45.5 L255.5,75.5 L225.5,75.5 L225.5,45.5 z" fill="#9D9E9E"/>
      <path d="M225.5,45.5 L255.5,45.5 L255.5,75.5 L225.5,75.5 L225.5,45.5 z" fill-opacity="0" stroke="#294270" stroke-width="2"/>
    </g>
    <g>
      <path d="M255.5,45.5 L285.5,45.5 L285.5,75.5 L255.5,75.5 L255.5,45.5 z" fill="#EBEDED"/>
      <path d="M255.5,45.5 L285.5,45.5 L285.5,75.5 L255.5,75.5 L255.5,45.5 z" fill-opacity="0" stroke="#294270" stroke-width="2"/>
    </g>
    <g>
      <path d="M285.5,45.5 L315.5,45.5 L315.5,75.5 L285.5,75.5 L285.5,45.5 z" fill="#EBEDED"/>
      <path d="M285.5,45.5 L315.5,45.5 L315.5,75.5 L285.5,75.5 L285.5,45.5 z" fill-opacity="0" stroke="#294270" stroke-width="2"/>
    </g>
    <g>
      <path d="M315.5,45.5 L345.5,45.5 L345.5,75.5 L315.5,75.5 L315.5,45.5 z" fill="#EBEDED"/>
      <path d="M315.5,45.5 L345.5,45.5 L345.5,75.5 L315.5,75.5 L315.5,45.5 z" fill-opacity="0" stroke="#294270" stroke-width="2"/>
    </g>
    <g>
      <path d="M345.5,45.5 L375.5,45.5 L375.5,75.5 L345.5,75.5 L345.5,45.5 z" fill="#9D9E9E"/>
      <path d="M345.5,45.5 L375.5,45.5 L375.5,75.5 L345.5,75.5 L345.5,45.5 z" fill-opacity="0" stroke="#294270" stroke-width="2"/>
    </g>
    <g>
      <path d="M255.5,45.5 L285.5,45.5 L285.5,75.5 L255.5,75.5 L255.5,45.5 z" fill="#9D9E9E"/>
      <path d="M255.5,45.5 L285.5,45.5 L285.5,75.5 L255.5,75.5 L255.5,45.5 z" fill-opacity="0" stroke="#294270" stroke-width="2"/>
    </g>
    <g>
      <path d="M285.5,45.5 L315.5,45.5 L315.5,75.5 L285.5,75.5 L285.5,45.5 z" fill="#EBEDED"/>
      <path d="M285.5,45.5 L315.5,45.5 L315.5,75.5 L285.5,75.5 L285.5,45.5 z" fill-opacity="0" stroke="#294270" stroke-width="2"/>
    </g>
    <g>
      <path d="M315.5,45.5 L345.5,45.5 L345.5,75.5 L315.5,75.5 L315.5,45.5 z" fill="#9D9E9E"/>
      <path d="M315.5,45.5 L345.5,45.5 L345.5,75.5 L315.5,75.5 L315.5,45.5 z" fill-opacity="0" stroke="#294270" stroke-width="2"/>
    </g>
    <g>
      <path d="M345.5,45.5 L375.5,45.5 L375.5,75.5 L345.5,75.5 L345.5,45.5 z" fill="#9D9E9E"/>
      <path d="M345.5,45.5 L375.5,45.5 L375.5,75.5 L345.5,75.5 L345.5,45.5 z" fill-opacity="0" stroke="#294270" stroke-width="2"/>
    </g>
    <g>
      <path d="M15.5,75.5 L45.5,75.5 L45.5,105.5 L15.5,105.5 L15.5,75.5 z" fill="#9D9E9E"/>
      <path d="M15.5,75.5 L45.5,75.5 L45.5,105.5 L15.5,105.5 L15.5,75.5 z" fill-opacity="0" stroke="#294270" stroke-width="2"/>
    </g>
    <g>
      <path d="M45.5,75.5 L75.5,75.5 L75.5,105.5 L45.5,105.5 L45.5,75.5 z" fill="#EBEDED"/>
      <path d="M45.5,75.5 L75.5,75.5 L75.5,105.5 L45.5,105.5 L45.5,75.5 z" fill-opacity="0" stroke="#294270" stroke-width="2"/>
    </g>
    <g>
      <path d="M75.5,75.5 L105.5,75.5 L105.5,105.5 L75.5,105.5 L75.5,75.5 z" fill="#EBEDED"/>
      <path d="M75.5,75.5 L105.5,75.5 L105.5,105.5 L75.5,105.5 L75.5,75.5 z" fill-opacity="0" stroke="#294270" stroke-width="2"/>
    </g>
    <g>
      <path d="M105.5,75.5 L135.5,75.5 L135.5,105.5 L105.5,105.5 L105.5,75.5 z" fill="#8FC7ED"/>
      <path d="M105.5,75.5 L135.5,75.5 L135.5,105.5 L105.5,105.5 L105.5,75.5 z" fill-opacity="0" stroke="#294270" stroke-width="2"/>
    </g>
    <g>
      <path d="M135.5,75.5 L165.5,75.5 L165.5,105.5 L135.5,105.5 L135.5,75.5 z" fill="#8FC7ED"/>
      <path d="M135.5,75.5 L165.5,75.5 L165.5,105.5 L135.5,105.5 L135.5,75.5 z" fill-opacity="0" stroke="#294270" stroke-width="2"/>
    </g>
    <g>
      <path d="M165.5,75.5 L195.5,75.5 L195.5,105.5 L165.5,105.5 L165.5,75.5 z" fill="#8FC7ED"/>
      <path d="M165.5,75.5 L195.5,75.5 L195.5,105.5 L165.5,105.5 L165.5,75.5 z" fill-opacity="0" stroke="#294270" stroke-width="2"/>
    </g>
    <g>
      <path d="M195.5,75.5 L225.5,75.5 L225.5,105.5 L195.5,105.5 L195.5,75.5 z" fill="#EBEDED"/>
      <path d="M195.5,75.5 L225.5,75.5 L225.5,105.5 L195.5,105.5 L195.5,75.5 z" fill-opacity="0" stroke="#294270" stroke-width="2"/>
    </g>
    <g>
      <path d="M225.5,75.5 L255.5,75.5 L255.5,105.5 L225.5,105.5 L225.5,75.5 z" fill="#EBEDED"/>
      <path d="M225.5,75.5 L255.5,75.5 L255.5,105.5 L225.5,105.5 L225.5,75.5 z" fill-opacity="0" stroke="#294270" stroke-width="2"/>
    </g>
    <g>
      <path d="M255.5,75.5 L285.5,75.5 L285.5,105.5 L255.5,105.5 L255.5,75.5 z" fill="#EBEDED"/>
      <path d="M255.5,75.5 L285.5,75.5 L285.5,105.5 L255.5,105.5 L255.5,75.5 z" fill-opacity="0" stroke="#294270" stroke-width="2"/>
    </g>
    <g>
      <path d="M285.5,75.5 L315.5,75.5 L315.5,105.5 L285.5,105.5 L285.5,75.5 z" fill="#EBEDED"/>
      <path d="M285.5,75.5 L315.5,75.5 L315.5,105.5 L285.5,105.5 L285.5,75.5 z" fill-opacity="0" stroke="#294270" stroke-width="2"/>
    </g>
    <g>
      <path d="M315.5,75.5 L345.5,75.5 L345.5,105.5 L315.5,105.5 L315.5,75.5 z" fill="#EBEDED"/>
      <path d="M315.5,75.5 L345.5,75.5 L345.5,105.5 L315.5,105.5 L315.5,75.5 z" fill-opacity="0" stroke="#294270" stroke-width="2"/>
    </g>
    <g>
      <path d="M345.5,75.5 L375.5,75.5 L375.5,105.5 L345.5,105.5 L345.5,75.5 z" fill="#9D9E9E"/>
      <path d="M345.5,75.5 L375.5,75.5 L375.5,105.5 L345.5,105.5 L345.5,75.5 z" fill-opacity="0" stroke="#294270" stroke-width="2"/>
    </g>
    <g>
      <path d="M255.5,75.5 L285.5,75.5 L285.5,105.5 L255.5,105.5 L255.5,75.5 z" fill="#EBEDED"/>
      <path d="M255.5,75.5 L285.5,75.5 L285.5,105.5 L255.5,105.5 L255.5,75.5 z" fill-opacity="0" stroke="#294270" stroke-width="2"/>
    </g>
    <g>
      <path d="M285.5,75.5 L315.5,75.5 L315.5,105.5 L285.5,105.5 L285.5,75.5 z" fill="#EBEDED"/>
      <path d="M285.5,75.5 L315.5,75.5 L315.5,105.5 L285.5,105.5 L285.5,75.5 z" fill-opacity="0" stroke="#294270" stroke-width="2"/>
    </g>
    <g>
      <path d="M315.5,75.5 L345.5,75.5 L345.5,105.5 L315.5,105.5 L315.5,75.5 z" fill="#EBEDED"/>
      <path d="M315.5,75.5 L345.5,75.5 L345.5,105.5 L315.5,105.5 L315.5,75.5 z" fill-opacity="0" stroke="#294270" stroke-width="2"/>
    </g>
    <g>
      <path d="M345.5,75.5 L375.5,75.5 L375.5,105.5 L345.5,105.5 L345.5,75.5 z" fill="#9D9E9E"/>
      <path d="M345.5,75.5 L375.5,75.5 L375.5,105.5 L345.5,105.5 L345.5,75.5 z" fill-opacity="0" stroke="#294270" stroke-width="2"/>
    </g>
    <g>
      <path d="M15.5,105.5 L45.5,105.5 L45.5,135.5 L15.5,135.5 L15.5,105.5 z" fill="#9D9E9E"/>
      <path d="M15.5,105.5 L45.5,105.5 L45.5,135.5 L15.5,135.5 L15.5,105.5 z" fill-opacity="0" stroke="#294270" stroke-width="2"/>
    </g>
    <g>
      <path d="M45.5,105.5 L75.5,105.5 L75.5,135.5 L45.5,135.5 L45.5,105.5 z" fill="#9D9E9E"/>
      <path d="M45.5,105.5 L75.5,105.5 L75.5,135.5 L45.5,135.5 L45.5,105.5 z" fill-opacity="0" stroke="#294270" stroke-width="2"/>
    </g>
    <g>
      <path d="M75.5,105.5 L105.5,105.5 L105.5,135.5 L75.5,135.5 L75.5,105.5 z" fill="#9D9E9E"/>
      <path d="M75.5,105.5 L105.5,105.5 L105.5,135.5 L75.5,135.5 L75.5,105.5 z" fill-opacity="0" stroke="#294270" stroke-width="2"/>
    </g>
    <g>
      <path d="M105.5,105.5 L135.5,105.5 L135.5,135.5 L105.5,135.5 L105.5,105.5 z" fill="#294270"/>
      <path d="M105.5,105.5 L135.5,105.5 L135.5,135.5 L105.5,135.5 L105.5,105.5 z" fill-opacity="0" stroke="#294270" stroke-width="2"/>
    </g>
    <g>
      <path d="M135.5,105.5 L165.5,105.5 L165.5,135.5 L135.5,135.5 L135.5,105.5 z" fill="#8FC7ED"/>
      <path d="M135.5,105.5 L165.5,105.5 L165.5,135.5 L135.5,135.5 L135.5,105.5 z" fill-opacity="0" stroke="#294270" stroke-width="2"/>
    </g>
    <g>
      <path d="M165.5,105.5 L195.5,105.5 L195.5,135.5 L165.5,135.5 L165.5,105.5 z" fill="#294270"/>
      <path d="M165.5,105.5 L195.5,105.5 L195.5,135.5 L165.5,135.5 L165.5,105.5 z" fill-opacity="0" stroke="#294270" stroke-width="2"/>
    </g>
    <g>
      <path d="M195.5,105.5 L225.5,105.5 L225.5,135.5 L195.5,135.5 L195.5,105.5 z" fill="#9D9E9E"/>
      <path d="M195.5,105.5 L225.5,105.5 L225.5,135.5 L195.5,135.5 L195.5,105.5 z" fill-opacity="0" stroke="#294270" stroke-width="2"/>
    </g>
    <g>
      <path d="M225.5,105.5 L255.5,105.5 L255.5,135.5 L225.5,135.5 L225.5,105.5 z" fill="#9D9E9E"/>
      <path d="M225.5,105.5 L255.5,105.5 L255.5,135.5 L225.5,135.5 L225.5,105.5 z" fill-opacity="0" stroke="#294270" stroke-width="2"/>
    </g>
    <g>
      <path d="M255.5,105.5 L285.5,105.5 L285.5,135.5 L255.5,135.5 L255.5,105.5 z" fill="#EBEDED"/>
      <path d="M255.5,105.5 L285.5,105.5 L285.5,135.5 L255.5,135.5 L255.5,105.5 z" fill-opacity="0" stroke="#294270" stroke-width="2"/>
    </g>
    <g>
      <path d="M285.5,105.5 L315.5,105.5 L315.5,135.5 L285.5,135.5 L285.5,105.5 z" fill="#EBEDED"/>
      <path d="M285.5,105.5 L315.5,105.5 L315.5,135.5 L285.5,135.5 L285.5,105.5 z" fill-opacity="0" stroke="#294270" stroke-width="2"/>
    </g>
    <g>
      <path d="M315.5,105.5 L345.5,105.5 L345.5,135.5 L315.5,135.5 L315.5,105.5 z" fill="#EBEDED"/>
      <path d="M315.5,105.5 L345.5,105.5 L345.5,135.5 L315.5,135.5 L315.5,105.5 z" fill-opacity="0" stroke="#294270" stroke-width="2"/>
    </g>
    <g>
      <path d="M345.5,105.5 L375.5,105.5 L375.5,135.5 L345.5,135.5 L345.5,105.5 z" fill="#9D9E9E"/>
      <path d="M345.5,105.5 L375.5,105.5 L375.5,135.5 L345.5,135.5 L345.5,105.5 z" fill-opacity="0" stroke="#294270" stroke-width="2"/>
    </g>
    <g>
      <path d="M255.5,105.5 L285.5,105.5 L285.5,135.5 L255.5,135.5 L255.5,105.5 z" fill="#9D9E9E"/>
      <path d="M255.5,105.5 L285.5,105.5 L285.5,135.5 L255.5,135.5 L255.5,105.5 z" fill-opacity="0" stroke="#294270" stroke-width="2"/>
    </g>
    <g>
      <path d="M285.5,105.5 L315.5,105.5 L315.5,135.5 L285.5,135.5 L285.5,105.5 z" fill="#9D9E9E"/>
      <path d="M285.5,105.5 L315.5,105.5 L315.5,135.5 L285.5,135.5 L285.5,105.5 z" fill-opacity="0" stroke="#294270" stroke-width="2"/>
    </g>
    <g>
      <path d="M315.5,105.5 L345.5,105.5 L345.5,135.5 L315.5,135.5 L315.5,105.5 z" fill="#EBEDED"/>
      <path d="M315.5,105.5 L345.5,105.5 L345.5,135.5 L315.5,135.5 L315.5,105.5 z" fill-opacity="0" stroke="#294270" stroke-width="2"/>
    </g>
    <g>
      <path d="M345.5,105.5 L375.5,105.5 L375.5,135.5 L345.5,135.5 L345.5,105.5 z" fill="#9D9E9E"/>
      <path d="M345.5,105.5 L375.5,105.5 L375.5,135.5 L345.5,135.5 L345.5,105.5 z" fill-opacity="0" stroke="#294270" stroke-width="2"/>
    </g>
    <g>
      <path d="M15.5,135.5 L45.5,135.5 L45.5,165.5 L15.5,165.5 L15.5,135.5 z" fill="#294270"/>
      <path d="M15.5,135.5 L45.5,135.5 L45.5,165.5 L15.5,165.5 L15.5,135.5 z" fill-opacity="0" stroke="#294270" stroke-width="2"/>
    </g>
    <g>
      <path d="M45.5,135.5 L75.5,135.5 L75.5,165.5 L45.5,165.5 L45.5,135.5 z" fill="#294270"/>
      <path d="M45.5,135.5 L75.5,135.5 L75.5,165.5 L45.5,165.5 L45.5,135.5 z" fill-opacity="0" stroke="#294270" stroke-width="2"/>
    </g>
    <g>
      <path d="M75.5,135.5 L105.5,135.5 L105.5,165.5 L75.5,165.5 L75.5,135.5 z" fill="#294270"/>
      <path d="M75.5,135.5 L105.5,135.5 L105.5,165.5 L75.5,165.5 L75.5,135.5 z" fill-opacity="0" stroke="#294270" stroke-width="2"/>
    </g>
    <g>
      <path d="M105.5,135.5 L135.5,135.5 L135.5,165.5 L105.5,165.5 L105.5,135.5 z" fill="#294270"/>
      <path d="M105.5,135.5 L135.5,135.5 L135.5,165.5 L105.5,165.5 L105.5,135.5 z" fill-opacity="0" stroke="#294270" stroke-width="2"/>
    </g>
    <g>
      <path d="M135.5,135.5 L165.5,135.5 L165.5,165.5 L135.5,165.5 L135.5,135.5 z" fill="#8FC7ED"/>
      <path d="M135.5,135.5 L165.5,135.5 L165.5,165.5 L135.5,165.5 L135.5,135.5 z" fill-opacity="0" stroke="#294270" stroke-width="2"/>
    </g>
    <g>
      <path d="M165.5,135.5 L195.5,135.5 L195.5,165.5 L165.5,165.5 L165.5,135.5 z" fill="#294270"/>
      <path d="M165.5,135.5 L195.5,135.5 L195.5,165.5 L165.5,165.5 L165.5,135.5 z" fill-opacity="0" stroke="#294270" stroke-width="2"/>
    </g>
    <g>
      <path d="M195.5,135.5 L225.5,135.5 L225.5,165.5 L195.5,165.5 L195.5,135.5 z" fill="#EBEDED"/>
      <path d="M195.5,135.5 L225.5,135.5 L225.5,165.5 L195.5,165.5 L195.5,135.5 z" fill-opacity="0" stroke="#294270" stroke-width="2"/>
    </g>
    <g>
      <path d="M225.5,135.5 L255.5,135.5 L255.5,165.5 L225.5,165.5 L225.5,135.5 z" fill="#EBEDED"/>
      <path d="M225.5,135.5 L255.5,135.5 L255.5,165.5 L225.5,165.5 L225.5,135.5 z" fill-opacity="0" stroke="#294270" stroke-width="2"/>
    </g>
    <g>
      <path d="M255.5,135.5 L285.5,135.5 L285.5,165.5 L255.5,165.5 L255.5,135.5 z" fill="#EBEDED"/>
      <path d="M255.5,135.5 L285.5,135.5 L285.5,165.5 L255.5,165.5 L255.5,135.5 z" fill-opacity="0" stroke="#294270" stroke-width="2"/>
    </g>
    <g>
      <path d="M285.5,135.5 L315.5,135.5 L315.5,165.5 L285.5,165.5 L285.5,135.5 z" fill="#EBEDED"/>
      <path d="M285.5,135.5 L315.5,135.5 L315.5,165.5 L285.5,165.5 L285.5,135.5 z" fill-opacity="0" stroke="#294270" stroke-width="2"/>
    </g>
    <g>
      <path d="M315.5,135.5 L345.5,135.5 L345.5,165.5 L315.5,165.5 L315.5,135.5 z" fill="#EBEDED"/>
      <path d="M315.5,135.5 L345.5,135.5 L345.5,165.5 L315.5,165.5 L315.5,135.5 z" fill-opacity="0" stroke="#294270" stroke-width="2"/>
    </g>
    <g>
      <path d="M345.5,135.5 L375.5,135.5 L375.5,165.5 L345.5,165.5 L345.5,135.5 z" fill="#9D9E9E"/>
      <path d="M345.5,135.5 L375.5,135.5 L375.5,165.5 L345.5,165.5 L345.5,135.5 z" fill-opacity="0" stroke="#294270" stroke-width="2"/>
    </g>
    <g>
      <path d="M255.5,135.5 L285.5,135.5 L285.5,165.5 L255.5,165.5 L255.5,135.5 z" fill="#EBEDED"/>
      <path d="M255.5,135.5 L285.5,135.5 L285.5,165.5 L255.5,165.5 L255.5,135.5 z" fill-opacity="0" stroke="#294270" stroke-width="2"/>
    </g>
    <g>
      <path d="M285.5,135.5 L315.5,135.5 L315.5,165.5 L285.5,165.5 L285.5,135.5 z" fill="#9D9E9E"/>
      <path d="M285.5,135.5 L315.5,135.5 L315.5,165.5 L285.5,165.5 L285.5,135.5 z" fill-opacity="0" stroke="#294270" stroke-width="2"/>
    </g>
    <g>
      <path d="M315.5,135.5 L345.5,135.5 L345.5,165.5 L315.5,165.5 L315.5,135.5 z" fill="#EBEDED"/>
      <path d="M315.5,135.5 L345.5,135.5 L345.5,165.5 L315.5,165.5 L315.5,135.5 z" fill-opacity="0" stroke="#294270" stroke-width="2"/>
    </g>
    <g>
      <path d="M345.5,135.5 L375.5,135.5 L375.5,165.5 L345.5,165.5 L345.5,135.5 z" fill="#9D9E9E"/>
      <path d="M345.5,135.5 L375.5,135.5 L375.5,165.5 L345.5,165.5 L345.5,135.5 z" fill-opacity="0" stroke="#294270" stroke-width="2"/>
    </g>
    <g>
      <path d="M15.5,165.5 L45.5,165.5 L45.5,195.5 L15.5,195.5 L15.5,165.5 z" fill="#294270"/>
      <path d="M15.5,165.5 L45.5,165.5 L45.5,195.5 L15.5,195.5 L15.5,165.5 z" fill-opacity="0" stroke="#294270" stroke-width="2"/>
    </g>
    <g>
      <path d="M45.5,165.5 L75.5,165.5 L75.5,195.5 L45.5,195.5 L45.5,165.5 z" fill="#8FC7ED"/>
      <path d="M45.5,165.5 L75.5,165.5 L75.5,195.5 L45.5,195.5 L45.5,165.5 z" fill-opacity="0" stroke="#294270" stroke-width="2"/>
    </g>
    <g>
      <path d="M75.5,165.5 L105.5,165.5 L105.5,195.5 L75.5,195.5 L75.5,165.5 z" fill="#8FC7ED"/>
      <path d="M75.5,165.5 L105.5,165.5 L105.5,195.5 L75.5,195.5 L75.5,165.5 z" fill-opacity="0" stroke="#294270" stroke-width="2"/>
    </g>
    <g>
      <path d="M105.5,165.5 L135.5,165.5 L135.5,195.5 L105.5,195.5 L105.5,165.5 z" fill="#8FC7ED"/>
      <path d="M105.5,165.5 L135.5,165.5 L135.5,195.5 L105.5,195.5 L105.5,165.5 z" fill-opacity="0" stroke="#294270" stroke-width="2"/>
    </g>
    <g>
      <path d="M135.5,165.5 L165.5,165.5 L165.5,195.5 L135.5,195.5 L135.5,165.5 z" fill="#8FC7ED"/>
      <path d="M135.5,165.5 L165.5,165.5 L165.5,195.5 L135.5,195.5 L135.5,165.5 z" fill-opacity="0" stroke="#294270" stroke-width="2"/>
    </g>
    <g>
      <path d="M165.5,165.5 L195.5,165.5 L195.5,195.5 L165.5,195.5 L165.5,165.5 z" fill="#294270"/>
      <path d="M165.5,165.5 L195.5,165.5 L195.5,195.5 L165.5,195.5 L165.5,165.5 z" fill-opacity="0" stroke="#294270" stroke-width="2"/>
    </g>
    <g>
      <path d="M195.5,165.5 L225.5,165.5 L225.5,195.5 L195.5,195.5 L195.5,165.5 z" fill="#EBEDED"/>
      <path d="M195.5,165.5 L225.5,165.5 L225.5,195.5 L195.5,195.5 L195.5,165.5 z" fill-opacity="0" stroke="#294270" stroke-width="2"/>
    </g>
    <g>
      <path d="M225.5,165.5 L255.5,165.5 L255.5,195.5 L225.5,195.5 L225.5,165.5 z" fill="#EBEDED"/>
      <path d="M225.5,165.5 L255.5,165.5 L255.5,195.5 L225.5,195.5 L225.5,165.5 z" fill-opacity="0" stroke="#294270" stroke-width="2"/>
    </g>
    <g>
      <path d="M255.5,165.5 L285.5,165.5 L285.5,195.5 L255.5,195.5 L255.5,165.5 z" fill="#EBEDED"/>
      <path d="M255.5,165.5 L285.5,165.5 L285.5,195.5 L255.5,195.5 L255.5,165.5 z" fill-opacity="0" stroke="#294270" stroke-width="2"/>
    </g>
    <g>
      <path d="M285.5,165.5 L315.5,165.5 L315.5,195.5 L285.5,195.5 L285.5,165.5 z" fill="#EBEDED"/>
      <path d="M285.5,165.5 L315.5,165.5 L315.5,195.5 L285.5,195.5 L285.5,165.5 z" fill-opacity="0" stroke="#294270" stroke-width="2"/>
    </g>
    <g>
      <path d="M315.5,165.5 L345.5,165.5 L345.5,195.5 L315.5,195.5 L315.5,165.5 z" fill="#EBEDED"/>
      <path d="M315.5,165.5 L345.5,165.5 L345.5,195.5 L315.5,195.5 L315.5,165.5 z" fill-opacity="0" stroke="#294270" stroke-width="2"/>
    </g>
    <g>
      <path d="M345.5,165.5 L375.5,165.5 L375.5,195.5 L345.5,195.5 L345.5,165.5 z" fill="#9D9E9E"/>
      <path d="M345.5,165.5 L375.5,165.5 L375.5,195.5 L345.5,195.5 L345.5,165.5 z" fill-opacity="0" stroke="#294270" stroke-width="2"/>
    </g>
    <g>
      <path d="M255.5,165.5 L285.5,165.5 L285.5,195.5 L255.5,195.5 L255.5,165.5 z" fill="#EBEDED"/>
      <path d="M255.5,165.5 L285.5,165.5 L285.5,195.5 L255.5,195.5 L255.5,165.5 z" fill-opacity="0" stroke="#294270" stroke-width="2"/>
    </g>
    <g>
      <path d="M285.5,165.5 L315.5,165.5 L315.5,195.5 L285.5,195.5 L285.5,165.5 z" fill="#9D9E9E"/>
      <path d="M285.5,165.5 L315.5,165.5 L315.5,195.5 L285.5,195.5 L285.5,165.5 z" fill-opacity="0" stroke="#294270" stroke-width="2"/>
    </g>
    <g>
      <path d="M315.5,165.5 L345.5,165.5 L345.5,195.5 L315.5,195.5 L315.5,165.5 z" fill="#EBEDED"/>
      <path d="M315.5,165.5 L345.5,165.5 L345.5,195.5 L315.5,195.5 L315.5,165.5 z" fill-opacity="0" stroke="#294270" stroke-width="2"/>
    </g>
    <g>
      <path d="M345.5,165.5 L375.5,165.5 L375.5,195.5 L345.5,195.5 L345.5,165.5 z" fill="#9D9E9E"/>
      <path d="M345.5,165.5 L375.5,165.5 L375.5,195.5 L345.5,195.5 L345.5,165.5 z" fill-opacity="0" stroke="#294270" stroke-width="2"/>
    </g>
    <g>
      <path d="M15.5,195.5 L45.5,195.5 L45.5,225.5 L15.5,225.5 L15.5,195.5 z" fill="#294270"/>
      <path d="M15.5,195.5 L45.5,195.5 L45.5,225.5 L15.5,225.5 L15.5,195.5 z" fill-opacity="0" stroke="#294270" stroke-width="2"/>
    </g>
    <g>
      <path d="M45.5,195.5 L75.5,195.5 L75.5,225.5 L45.5,225.5 L45.5,195.5 z" fill="#294270"/>
      <path d="M45.5,195.5 L75.5,195.5 L75.5,225.5 L45.5,225.5 L45.5,195.5 z" fill-opacity="0" stroke="#294270" stroke-width="2"/>
    </g>
    <g>
      <path d="M75.5,195.5 L105.5,195.5 L105.5,225.5 L75.5,225.5 L75.5,195.5 z" fill="#294270"/>
      <path d="M75.5,195.5 L105.5,195.5 L105.5,225.5 L75.5,225.5 L75.5,195.5 z" fill-opacity="0" stroke="#294270" stroke-width="2"/>
    </g>
    <g>
      <path d="M105.5,195.5 L135.5,195.5 L135.5,225.5 L105.5,225.5 L105.5,195.5 z" fill="#294270"/>
      <path d="M105.5,195.5 L135.5,195.5 L135.5,225.5 L105.5,225.5 L105.5,195.5 z" fill-opacity="0" stroke="#294270" stroke-width="2"/>
    </g>
    <g>
      <path d="M135.5,195.5 L165.5,195.5 L165.5,225.5 L135.5,225.5 L135.5,195.5 z" fill="#8FC7ED"/>
      <path d="M135.5,195.5 L165.5,195.5 L165.5,225.5 L135.5,225.5 L135.5,195.5 z" fill-opacity="0" stroke="#294270" stroke-width="2"/>
    </g>
    <g>
      <path d="M165.5,195.5 L195.5,195.5 L195.5,225.5 L165.5,225.5 L165.5,195.5 z" fill="#294270"/>
      <path d="M165.5,195.5 L195.5,195.5 L195.5,225.5 L165.5,225.5 L165.5,195.5 z" fill-opacity="0" stroke="#294270" stroke-width="2"/>
    </g>
    <g>
      <path d="M195.5,195.5 L225.5,195.5 L225.5,225.5 L195.5,225.5 L195.5,195.5 z" fill="#EBEDED"/>
      <path d="M195.5,195.5 L225.5,195.5 L225.5,225.5 L195.5,225.5 L195.5,195.5 z" fill-opacity="0" stroke="#294270" stroke-width="2"/>
    </g>
    <g>
      <path d="M225.5,195.5 L255.5,195.5 L255.5,225.5 L225.5,225.5 L225.5,195.5 z" fill="#EBEDED"/>
      <path d="M225.5,195.5 L255.5,195.5 L255.5,225.5 L225.5,225.5 L225.5,195.5 z" fill-opacity="0" stroke="#294270" stroke-width="2"/>
    </g>
    <g>
      <path d="M255.5,195.5 L285.5,195.5 L285.5,225.5 L255.5,225.5 L255.5,195.5 z" fill="#EBEDED"/>
      <path d="M255.5,195.5 L285.5,195.5 L285.5,225.5 L255.5,225.5 L255.5,195.5 z" fill-opacity="0" stroke="#294270" stroke-width="2"/>
    </g>
    <g>
      <path d="M285.5,195.5 L315.5,195.5 L315.5,225.5 L285.5,225.5 L285.5,195.5 z" fill="#EBEDED"/>
      <path d="M285.5,195.5 L315.5,195.5 L315.5,225.5 L285.5,225.5 L285.5,195.5 z" fill-opacity="0" stroke="#294270" stroke-width="2"/>
    </g>
    <g>
      <path d="M315.5,195.5 L345.5,195.5 L345.5,225.5 L315.5,225.5 L315.5,195.5 z" fill="#EBEDED"/>
      <path d="M315.5,195.5 L345.5,195.5 L345.5,225.5 L315.5,225.5 L315.5,195.5 z" fill-opacity="0" stroke="#294270" stroke-width="2"/>
    </g>
    <g>
      <path d="M345.5,195.5 L375.5,195.5 L375.5,225.5 L345.5,225.5 L345.5,195.5 z" fill="#9D9E9E"/>
      <path d="M345.5,195.5 L375.5,195.5 L375.5,225.5 L345.5,225.5 L345.5,195.5 z" fill-opacity="0" stroke="#294270" stroke-width="2"/>
    </g>
    <g>
      <path d="M255.5,195.5 L285.5,195.5 L285.5,225.5 L255.5,225.5 L255.5,195.5 z" fill="#EBEDED"/>
      <path d="M255.5,195.5 L285.5,195.5 L285.5,225.5 L255.5,225.5 L255.5,195.5 z" fill-opacity="0" stroke="#294270" stroke-width="2"/>
    </g>
    <g>
      <path d="M285.5,195.5 L315.5,195.5 L315.5,225.5 L285.5,225.5 L285.5,195.5 z" fill="#9D9E9E"/>
      <path d="M285.5,195.5 L315.5,195.5 L315.5,225.5 L285.5,225.5 L285.5,195.5 z" fill-opacity="0" stroke="#294270" stroke-width="2"/>
    </g>
    <g>
      <path d="M315.5,195.5 L345.5,195.5 L345.5,225.5 L315.5,225.5 L315.5,195.5 z" fill="#EBEDED"/>
      <path d="M315.5,195.5 L345.5,195.5 L345.5,225.5 L315.5,225.5 L315.5,195.5 z" fill-opacity="0" stroke="#294270" stroke-width="2"/>
    </g>
    <g>
      <path d="M345.5,195.5 L375.5,195.5 L375.5,225.5 L345.5,225.5 L345.5,195.5 z" fill="#9D9E9E"/>
      <path d="M345.5,195.5 L375.5,195.5 L375.5,225.5 L345.5,225.5 L345.5,195.5 z" fill-opacity="0" stroke="#294270" stroke-width="2"/>
    </g>
    <g>
      <path d="M15.5,225.5 L45.5,225.5 L45.5,255.5 L15.5,255.5 L15.5,225.5 z" fill="#9D9E9E"/>
      <path d="M15.5,225.5 L45.5,225.5 L45.5,255.5 L15.5,255.5 L15.5,225.5 z" fill-opacity="0" stroke="#294270" stroke-width="2"/>
    </g>
    <g>
      <path d="M45.5,225.5 L75.5,225.5 L75.5,255.5 L45.5,255.5 L45.5,225.5 z" fill="#9D9E9E"/>
      <path d="M45.5,225.5 L75.5,225.5 L75.5,255.5 L45.5,255.5 L45.5,225.5 z" fill-opacity="0" stroke="#294270" stroke-width="2"/>
    </g>
    <g>
      <path d="M75.5,225.5 L105.5,225.5 L105.5,255.5 L75.5,255.5 L75.5,225.5 z" fill="#EBEDED"/>
      <path d="M75.5,225.5 L105.5,225.5 L105.5,255.5 L75.5,255.5 L75.5,225.5 z" fill-opacity="0" stroke="#294270" stroke-width="2"/>
    </g>
    <g>
      <path d="M105.5,225.5 L135.5,225.5 L135.5,255.5 L105.5,255.5 L105.5,225.5 z" fill="#294270"/>
      <path d="M105.5,225.5 L135.5,225.5 L135.5,255.5 L105.5,255.5 L105.5,225.5 z" fill-opacity="0" stroke="#294270" stroke-width="2"/>
    </g>
    <g>
      <path d="M135.5,225.5 L165.5,225.5 L165.5,255.5 L135.5,255.5 L135.5,225.5 z" fill="#8FC7ED"/>
      <path d="M135.5,225.5 L165.5,225.5 L165.5,255.5 L135.5,255.5 L135.5,225.5 z" fill-opacity="0" stroke="#294270" stroke-width="2"/>
    </g>
    <g>
      <path d="M165.5,225.5 L195.5,225.5 L195.5,255.5 L165.5,255.5 L165.5,225.5 z" fill="#294270"/>
      <path d="M165.5,225.5 L195.5,225.5 L195.5,255.5 L165.5,255.5 L165.5,225.5 z" fill-opacity="0" stroke="#294270" stroke-width="2"/>
    </g>
    <g>
      <path d="M195.5,225.5 L225.5,225.5 L225.5,255.5 L195.5,255.5 L195.5,225.5 z" fill="#9D9E9E"/>
      <path d="M195.5,225.5 L225.5,225.5 L225.5,255.5 L195.5,255.5 L195.5,225.5 z" fill-opacity="0" stroke="#294270" stroke-width="2"/>
    </g>
    <g>
      <path d="M225.5,225.5 L255.5,225.5 L255.5,255.5 L225.5,255.5 L225.5,225.5 z" fill="#9D9E9E"/>
      <path d="M225.5,225.5 L255.5,225.5 L255.5,255.5 L225.5,255.5 L225.5,225.5 z" fill-opacity="0" stroke="#294270" stroke-width="2"/>
    </g>
    <g>
      <path d="M255.5,225.5 L285.5,225.5 L285.5,255.5 L255.5,255.5 L255.5,225.5 z" fill="#EBEDED"/>
      <path d="M255.5,225.5 L285.5,225.5 L285.5,255.5 L255.5,255.5 L255.5,225.5 z" fill-opacity="0" stroke="#294270" stroke-width="2"/>
    </g>
    <g>
      <path d="M285.5,225.5 L315.5,225.5 L315.5,255.5 L285.5,255.5 L285.5,225.5 z" fill="#EBEDED"/>
      <path d="M285.5,225.5 L315.5,225.5 L315.5,255.5 L285.5,255.5 L285.5,225.5 z" fill-opacity="0" stroke="#294270" stroke-width="2"/>
    </g>
    <g>
      <path d="M315.5,225.5 L345.5,225.5 L345.5,255.5 L315.5,255.5 L315.5,225.5 z" fill="#EBEDED"/>
      <path d="M315.5,225.5 L345.5,225.5 L345.5,255.5 L315.5,255.5 L315.5,225.5 z" fill-opacity="0" stroke="#294270" stroke-width="2"/>
    </g>
    <g>
      <path d="M345.5,225.5 L375.5,225.5 L375.5,255.5 L345.5,255.5 L345.5,225.5 z" fill="#9D9E9E"/>
      <path d="M345.5,225.5 L375.5,225.5 L375.5,255.5 L345.5,255.5 L345.5,225.5 z" fill-opacity="0" stroke="#294270" stroke-width="2"/>
    </g>
    <g>
      <path d="M255.5,225.5 L285.5,225.5 L285.5,255.5 L255.5,255.5 L255.5,225.5 z" fill="#9D9E9E"/>
      <path d="M255.5,225.5 L285.5,225.5 L285.5,255.5 L255.5,255.5 L255.5,225.5 z" fill-opacity="0" stroke="#294270" stroke-width="2"/>
    </g>
    <g>
      <path d="M285.5,225.5 L315.5,225.5 L315.5,255.5 L285.5,255.5 L285.5,225.5 z" fill="#9D9E9E"/>
      <path d="M285.5,225.5 L315.5,225.5 L315.5,255.5 L285.5,255.5 L285.5,225.5 z" fill-opacity="0" stroke="#294270" stroke-width="2"/>
    </g>
    <g>
      <path d="M315.5,225.5 L345.5,225.5 L345.5,255.5 L315.5,255.5 L315.5,225.5 z" fill="#EBEDED"/>
      <path d="M315.5,225.5 L345.5,225.5 L345.5,255.5 L315.5,255.5 L315.5,225.5 z" fill-opacity="0" stroke="#294270" stroke-width="2"/>
    </g>
    <g>
      <path d="M345.5,225.5 L375.5,225.5 L375.5,255.5 L345.5,255.5 L345.5,225.5 z" fill="#9D9E9E"/>
      <path d="M345.5,225.5 L375.5,225.5 L375.5,255.5 L345.5,255.5 L345.5,225.5 z" fill-opacity="0" stroke="#294270" stroke-width="2"/>
    </g>
    <g>
      <path d="M15.5,255.5 L45.5,255.5 L45.5,285.5 L15.5,285.5 L15.5,255.5 z" fill="#9D9E9E"/>
      <path d="M15.5,255.5 L45.5,255.5 L45.5,285.5 L15.5,285.5 L15.5,255.5 z" fill-opacity="0" stroke="#294270" stroke-width="2"/>
    </g>
    <g>
      <path d="M45.5,255.5 L75.5,255.5 L75.5,285.5 L45.5,285.5 L45.5,255.5 z" fill="#EBEDED"/>
      <path d="M45.5,255.5 L75.5,255.5 L75.5,285.5 L45.5,285.5 L45.5,255.5 z" fill-opacity="0" stroke="#294270" stroke-width="2"/>
    </g>
    <g>
      <path d="M75.5,255.5 L105.5,255.5 L105.5,285.5 L75.5,285.5 L75.5,255.5 z" fill="#EBEDED"/>
      <path d="M75.5,255.5 L105.5,255.5 L105.5,285.5 L75.5,285.5 L75.5,255.5 z" fill-opacity="0" stroke="#294270" stroke-width="2"/>
    </g>
    <g>
      <path d="M105.5,255.5 L135.5,255.5 L135.5,285.5 L105.5,285.5 L105.5,255.5 z" fill="#8FC7ED"/>
      <path d="M105.5,255.5 L135.5,255.5 L135.5,285.5 L105.5,285.5 L105.5,255.5 z" fill-opacity="0" stroke="#294270" stroke-width="2"/>
    </g>
    <g>
      <path d="M135.5,255.5 L165.5,255.5 L165.5,285.5 L135.5,285.5 L135.5,255.5 z" fill="#8FC7ED"/>
      <path d="M135.5,255.5 L165.5,255.5 L165.5,285.5 L135.5,285.5 L135.5,255.5 z" fill-opacity="0" stroke="#294270" stroke-width="2"/>
    </g>
    <g>
      <path d="M165.5,255.5 L195.5,255.5 L195.5,285.5 L165.5,285.5 L165.5,255.5 z" fill="#8FC7ED"/>
      <path d="M165.5,255.5 L195.5,255.5 L195.5,285.5 L165.5,285.5 L165.5,255.5 z" fill-opacity="0" stroke="#294270" stroke-width="2"/>
    </g>
    <g>
      <path d="M195.5,255.5 L225.5,255.5 L225.5,285.5 L195.5,285.5 L195.5,255.5 z" fill="#EBEDED"/>
      <path d="M195.5,255.5 L225.5,255.5 L225.5,285.5 L195.5,285.5 L195.5,255.5 z" fill-opacity="0" stroke="#294270" stroke-width="2"/>
    </g>
    <g>
      <path d="M225.5,255.5 L255.5,255.5 L255.5,285.5 L225.5,285.5 L225.5,255.5 z" fill="#EBEDED"/>
      <path d="M225.5,255.5 L255.5,255.5 L255.5,285.5 L225.5,285.5 L225.5,255.5 z" fill-opacity="0" stroke="#294270" stroke-width="2"/>
    </g>
    <g>
      <path d="M255.5,255.5 L285.5,255.5 L285.5,285.5 L255.5,285.5 L255.5,255.5 z" fill="#EBEDED"/>
      <path d="M255.5,255.5 L285.5,255.5 L285.5,285.5 L255.5,285.5 L255.5,255.5 z" fill-opacity="0" stroke="#294270" stroke-width="2"/>
    </g>
    <g>
      <path d="M285.5,255.5 L315.5,255.5 L315.5,285.5 L285.5,285.5 L285.5,255.5 z" fill="#EBEDED"/>
      <path d="M285.5,255.5 L315.5,255.5 L315.5,285.5 L285.5,285.5 L285.5,255.5 z" fill-opacity="0" stroke="#294270" stroke-width="2"/>
    </g>
    <g>
      <path d="M315.5,255.5 L345.5,255.5 L345.5,285.5 L315.5,285.5 L315.5,255.5 z" fill="#EBEDED"/>
      <path d="M315.5,255.5 L345.5,255.5 L345.5,285.5 L315.5,285.5 L315.5,255.5 z" fill-opacity="0" stroke="#294270" stroke-width="2"/>
    </g>
    <g>
      <path d="M345.5,255.5 L375.5,255.5 L375.5,285.5 L345.5,285.5 L345.5,255.5 z" fill="#9D9E9E"/>
      <path d="M345.5,255.5 L375.5,255.5 L375.5,285.5 L345.5,285.5 L345.5,255.5 z" fill-opacity="0" stroke="#294270" stroke-width="2"/>
    </g>
    <g>
      <path d="M255.5,255.5 L285.5,255.5 L285.5,285.5 L255.5,285.5 L255.5,255.5 z" fill="#EBEDED"/>
      <path d="M255.5,255.5 L285.5,255.5 L285.5,285.5 L255.5,285.5 L255.5,255.5 z" fill-opacity="0" stroke="#294270" stroke-width="2"/>
    </g>
    <g>
      <path d="M285.5,255.5 L315.5,255.5 L315.5,285.5 L285.5,285.5 L285.5,255.5 z" fill="#EBEDED"/>
      <path d="M285.5,255.5 L315.5,255.5 L315.5,285.5 L285.5,285.5 L285.5,255.5 z" fill-opacity="0" stroke="#294270" stroke-width="2"/>
    </g>
    <g>
      <path d="M315.5,255.5 L345.5,255.5 L345.5,285.5 L315.5,285.5 L315.5,255.5 z" fill="#EBEDED"/>
      <path d="M315.5,255.5 L345.5,255.5 L345.5,285.5 L315.5,285.5 L315.5,255.5 z" fill-opacity="0" stroke="#294270" stroke-width="2"/>
    </g>
    <g>
      <path d="M345.5,255.5 L375.5,255.5 L375.5,285.5 L345.5,285.5 L345.5,255.5 z" fill="#9D9E9E"/>
      <path d="M345.5,255.5 L375.5,255.5 L375.5,285.5 L345.5,285.5 L345.5,255.5 z" fill-opacity="0" stroke="#294270" stroke-width="2"/>
    </g>
    <g>
      <path d="M15.5,285.5 L45.5,285.5 L45.5,315.5 L15.5,315.5 L15.5,285.5 z" fill="#9D9E9E"/>
      <path d="M15.5,285.5 L45.5,285.5 L45.5,315.5 L15.5,315.5 L15.5,285.5 z" fill-opacity="0" stroke="#294270" stroke-width="2"/>
    </g>
    <g>
      <path d="M45.5,285.5 L75.5,285.5 L75.5,315.5 L45.5,315.5 L45.5,285.5 z" fill="#9D9E9E"/>
      <path d="M45.5,285.5 L75.5,285.5 L75.5,315.5 L45.5,315.5 L45.5,285.5 z" fill-opacity="0" stroke="#294270" stroke-width="2"/>
    </g>
    <g>
      <path d="M75.5,285.5 L105.5,285.5 L105.5,315.5 L75.5,315.5 L75.5,285.5 z" fill="#EBEDED"/>
      <path d="M75.5,285.5 L105.5,285.5 L105.5,315.5 L75.5,315.5 L75.5,285.5 z" fill-opacity="0" stroke="#294270" stroke-width="2"/>
    </g>
    <g>
      <path d="M105.5,285.5 L135.5,285.5 L135.5,315.5 L105.5,315.5 L105.5,285.5 z" fill="#294270"/>
      <path d="M105.5,285.5 L135.5,285.5 L135.5,315.5 L105.5,315.5 L105.5,285.5 z" fill-opacity="0" stroke="#294270" stroke-width="2"/>
    </g>
    <g>
      <path d="M135.5,285.5 L165.5,285.5 L165.5,315.5 L135.5,315.5 L135.5,285.5 z" fill="#8FC7ED"/>
      <path d="M135.5,285.5 L165.5,285.5 L165.5,315.5 L135.5,315.5 L135.5,285.5 z" fill-opacity="0" stroke="#294270" stroke-width="2"/>
    </g>
    <g>
      <path d="M165.5,285.5 L195.5,285.5 L195.5,315.5 L165.5,315.5 L165.5,285.5 z" fill="#294270"/>
      <path d="M165.5,285.5 L195.5,285.5 L195.5,315.5 L165.5,315.5 L165.5,285.5 z" fill-opacity="0" stroke="#294270" stroke-width="2"/>
    </g>
    <g>
      <path d="M195.5,285.5 L225.5,285.5 L225.5,315.5 L195.5,315.5 L195.5,285.5 z" fill="#9FA0A0"/>
      <path d="M195.5,285.5 L225.5,285.5 L225.5,315.5 L195.5,315.5 L195.5,285.5 z" fill-opacity="0" stroke="#294270" stroke-width="2"/>
    </g>
    <g>
      <path d="M225.5,285.5 L255.5,285.5 L255.5,315.5 L225.5,315.5 L225.5,285.5 z" fill="#9FA0A0"/>
      <path d="M225.5,285.5 L255.5,285.5 L255.5,315.5 L225.5,315.5 L225.5,285.5 z" fill-opacity="0" stroke="#294270" stroke-width="2"/>
    </g>
    <g>
      <path d="M255.5,285.5 L285.5,285.5 L285.5,315.5 L255.5,315.5 L255.5,285.5 z" fill="#EBEDED"/>
      <path d="M255.5,285.5 L285.5,285.5 L285.5,315.5 L255.5,315.5 L255.5,285.5 z" fill-opacity="0" stroke="#294270" stroke-width="2"/>
    </g>
    <g>
      <path d="M285.5,285.5 L315.5,285.5 L315.5,315.5 L285.5,315.5 L285.5,285.5 z" fill="#EBEDED"/>
      <path d="M285.5,285.5 L315.5,285.5 L315.5,315.5 L285.5,315.5 L285.5,285.5 z" fill-opacity="0" stroke="#294270" stroke-width="2"/>
    </g>
    <g>
      <path d="M315.5,285.5 L345.5,285.5 L345.5,315.5 L315.5,315.5 L315.5,285.5 z" fill="#EBEDED"/>
      <path d="M315.5,285.5 L345.5,285.5 L345.5,315.5 L315.5,315.5 L315.5,285.5 z" fill-opacity="0" stroke="#294270" stroke-width="2"/>
    </g>
    <g>
      <path d="M345.5,285.5 L375.5,285.5 L375.5,315.5 L345.5,315.5 L345.5,285.5 z" fill="#9D9E9E"/>
      <path d="M345.5,285.5 L375.5,285.5 L375.5,315.5 L345.5,315.5 L345.5,285.5 z" fill-opacity="0" stroke="#294270" stroke-width="2"/>
    </g>
    <g>
      <path d="M255.5,285.5 L285.5,285.5 L285.5,315.5 L255.5,315.5 L255.5,285.5 z" fill="#9FA0A0"/>
      <path d="M255.5,285.5 L285.5,285.5 L285.5,315.5 L255.5,315.5 L255.5,285.5 z" fill-opacity="0" stroke="#294270" stroke-width="2"/>
    </g>
    <g>
      <path d="M285.5,285.5 L315.5,285.5 L315.5,315.5 L285.5,315.5 L285.5,285.5 z" fill="#EBEDED"/>
      <path d="M285.5,285.5 L315.5,285.5 L315.5,315.5 L285.5,315.5 L285.5,285.5 z" fill-opacity="0" stroke="#294270" stroke-width="2"/>
    </g>
    <g>
      <path d="M315.5,285.5 L345.5,285.5 L345.5,315.5 L315.5,315.5 L315.5,285.5 z" fill="#9FA0A0"/>
      <path d="M315.5,285.5 L345.5,285.5 L345.5,315.5 L315.5,315.5 L315.5,285.5 z" fill-opacity="0" stroke="#294270" stroke-width="2"/>
    </g>
    <g>
      <path d="M345.5,285.5 L375.5,285.5 L375.5,315.5 L345.5,315.5 L345.5,285.5 z" fill="#9D9E9E"/>
      <path d="M345.5,285.5 L375.5,285.5 L375.5,315.5 L345.5,315.5 L345.5,285.5 z" fill-opacity="0" stroke="#294270" stroke-width="2"/>
    </g>
    <g>
      <path d="M15.5,315.5 L45.5,315.5 L45.5,345.5 L15.5,345.5 L15.5,315.5 z" fill="#9D9E9E"/>
      <path d="M15.5,315.5 L45.5,315.5 L45.5,345.5 L15.5,345.5 L15.5,315.5 z" fill-opacity="0" stroke="#294270" stroke-width="2"/>
    </g>
    <g>
      <path d="M45.5,315.5 L75.5,315.5 L75.5,345.5 L45.5,345.5 L45.5,315.5 z" fill="#9D9E9E"/>
      <path d="M45.5,315.5 L75.5,315.5 L75.5,345.5 L45.5,345.5 L45.5,315.5 z" fill-opacity="0" stroke="#294270" stroke-width="2"/>
    </g>
    <g>
      <path d="M75.5,315.5 L105.5,315.5 L105.5,345.5 L75.5,345.5 L75.5,315.5 z" fill="#9D9E9E"/>
      <path d="M75.5,315.5 L105.5,315.5 L105.5,345.5 L75.5,345.5 L75.5,315.5 z" fill-opacity="0" stroke="#294270" stroke-width="2"/>
    </g>
    <g>
      <path d="M105.5,315.5 L135.5,315.5 L135.5,345.5 L105.5,345.5 L105.5,315.5 z" fill="#294270"/>
      <path d="M105.5,315.5 L135.5,315.5 L135.5,345.5 L105.5,345.5 L105.5,315.5 z" fill-opacity="0" stroke="#294270" stroke-width="2"/>
    </g>
    <g>
      <path d="M135.5,315.5 L165.5,315.5 L165.5,345.5 L135.5,345.5 L135.5,315.5 z" fill="#8FC7ED"/>
      <path d="M135.5,315.5 L165.5,315.5 L165.5,345.5 L135.5,345.5 L135.5,315.5 z" fill-opacity="0" stroke="#294270" stroke-width="2"/>
    </g>
    <g>
      <path d="M165.5,315.5 L195.5,315.5 L195.5,345.5 L165.5,345.5 L165.5,315.5 z" fill="#294270"/>
      <path d="M165.5,315.5 L195.5,315.5 L195.5,345.5 L165.5,345.5 L165.5,315.5 z" fill-opacity="0" stroke="#294270" stroke-width="2"/>
    </g>
    <g>
      <path d="M195.5,315.5 L225.5,315.5 L225.5,345.5 L195.5,345.5 L195.5,315.5 z" fill="#EBEDED"/>
      <path d="M195.5,315.5 L225.5,315.5 L225.5,345.5 L195.5,345.5 L195.5,315.5 z" fill-opacity="0" stroke="#294270" stroke-width="2"/>
    </g>
    <g>
      <path d="M225.5,315.5 L255.5,315.5 L255.5,345.5 L225.5,345.5 L225.5,315.5 z" fill="#EBEDED"/>
      <path d="M225.5,315.5 L255.5,315.5 L255.5,345.5 L225.5,345.5 L225.5,315.5 z" fill-opacity="0" stroke="#294270" stroke-width="2"/>
    </g>
    <g>
      <path d="M255.5,315.5 L285.5,315.5 L285.5,345.5 L255.5,345.5 L255.5,315.5 z" fill="#EBEDED"/>
      <path d="M255.5,315.5 L285.5,315.5 L285.5,345.5 L255.5,345.5 L255.5,315.5 z" fill-opacity="0" stroke="#294270" stroke-width="2"/>
    </g>
    <g>
      <path d="M285.5,315.5 L315.5,315.5 L315.5,345.5 L285.5,345.5 L285.5,315.5 z" fill="#EBEDED"/>
      <path d="M285.5,315.5 L315.5,315.5 L315.5,345.5 L285.5,345.5 L285.5,315.5 z" fill-opacity="0" stroke="#294270" stroke-width="2"/>
    </g>
    <g>
      <path d="M315.5,315.5 L345.5,315.5 L345.5,345.5 L315.5,345.5 L315.5,315.5 z" fill="#EBEDED"/>
      <path d="M315.5,315.5 L345.5,315.5 L345.5,345.5 L315.5,345.5 L315.5,315.5 z" fill-opacity="0" stroke="#294270" stroke-width="2"/>
    </g>
    <g>
      <path d="M345.5,315.5 L375.5,315.5 L375.5,345.5 L345.5,345.5 L345.5,315.5 z" fill="#9D9E9E"/>
      <path d="M345.5,315.5 L375.5,315.5 L375.5,345.5 L345.5,345.5 L345.5,315.5 z" fill-opacity="0" stroke="#294270" stroke-width="2"/>
    </g>
    <g>
      <path d="M255.5,315.5 L285.5,315.5 L285.5,345.5 L255.5,345.5 L255.5,315.5 z" fill="#EBEDED"/>
      <path d="M255.5,315.5 L285.5,315.5 L285.5,345.5 L255.5,345.5 L255.5,315.5 z" fill-opacity="0" stroke="#294270" stroke-width="2"/>
    </g>
    <g>
      <path d="M285.5,315.5 L315.5,315.5 L315.5,345.5 L285.5,345.5 L285.5,315.5 z" fill="#EBEDED"/>
      <path d="M285.5,315.5 L315.5,315.5 L315.5,345.5 L285.5,345.5 L285.5,315.5 z" fill-opacity="0" stroke="#294270" stroke-width="2"/>
    </g>
    <g>
      <path d="M315.5,315.5 L345.5,315.5 L345.5,345.5 L315.5,345.5 L315.5,315.5 z" fill="#9FA0A0"/>
      <path d="M315.5,315.5 L345.5,315.5 L345.5,345.5 L315.5,345.5 L315.5,315.5 z" fill-opacity="0" stroke="#294270" stroke-width="2"/>
    </g>
    <g>
      <path d="M345.5,315.5 L375.5,315.5 L375.5,345.5 L345.5,345.5 L345.5,315.5 z" fill="#9D9E9E"/>
      <path d="M345.5,315.5 L375.5,315.5 L375.5,345.5 L345.5,345.5 L345.5,315.5 z" fill-opacity="0" stroke="#294270" stroke-width="2"/>
    </g>
    <g>
      <path d="M15.5,345.5 L45.5,345.5 L45.5,375.5 L15.5,375.5 L15.5,345.5 z" fill="#9D9E9E"/>
      <path d="M15.5,345.5 L45.5,345.5 L45.5,375.5 L15.5,375.5 L15.5,345.5 z" fill-opacity="0" stroke="#294270" stroke-width="2"/>
    </g>
    <g>
      <path d="M45.5,345.5 L75.5,345.5 L75.5,375.5 L45.5,375.5 L45.5,345.5 z" fill="#EBEDED"/>
      <path d="M45.5,345.5 L75.5,345.5 L75.5,375.5 L45.5,375.5 L45.5,345.5 z" fill-opacity="0" stroke="#294270" stroke-width="2"/>
    </g>
    <g>
      <path d="M75.5,345.5 L105.5,345.5 L105.5,375.5 L75.5,375.5 L75.5,345.5 z" fill="#EBEDED"/>
      <path d="M75.5,345.5 L105.5,345.5 L105.5,375.5 L75.5,375.5 L75.5,345.5 z" fill-opacity="0" stroke="#294270" stroke-width="2"/>
    </g>
    <g>
      <path d="M105.5,345.5 L135.5,345.5 L135.5,375.5 L105.5,375.5 L105.5,345.5 z" fill="#8FC7ED"/>
      <path d="M105.5,345.5 L135.5,345.5 L135.5,375.5 L105.5,375.5 L105.5,345.5 z" fill-opacity="0" stroke="#294270" stroke-width="2"/>
    </g>
    <g>
      <path d="M135.5,345.5 L165.5,345.5 L165.5,375.5 L135.5,375.5 L135.5,345.5 z" fill="#8FC7ED"/>
      <path d="M135.5,345.5 L165.5,345.5 L165.5,375.5 L135.5,375.5 L135.5,345.5 z" fill-opacity="0" stroke="#294270" stroke-width="2"/>
    </g>
    <g>
      <path d="M165.5,345.5 L195.5,345.5 L195.5,375.5 L165.5,375.5 L165.5,345.5 z" fill="#294270"/>
      <path d="M165.5,345.5 L195.5,345.5 L195.5,375.5 L165.5,375.5 L165.5,345.5 z" fill-opacity="0" stroke="#294270" stroke-width="2"/>
    </g>
    <g>
      <path d="M195.5,345.5 L225.5,345.5 L225.5,375.5 L195.5,375.5 L195.5,345.5 z" fill="#EBEDED"/>
      <path d="M195.5,345.5 L225.5,345.5 L225.5,375.5 L195.5,375.5 L195.5,345.5 z" fill-opacity="0" stroke="#294270" stroke-width="2"/>
    </g>
    <g>
      <path d="M225.5,345.5 L255.5,345.5 L255.5,375.5 L225.5,375.5 L225.5,345.5 z" fill="#9FA0A0"/>
      <path d="M225.5,345.5 L255.5,345.5 L255.5,375.5 L225.5,375.5 L225.5,345.5 z" fill-opacity="0" stroke="#294270" stroke-width="2"/>
    </g>
    <g>
      <path d="M255.5,345.5 L285.5,345.5 L285.5,375.5 L255.5,375.5 L255.5,345.5 z" fill="#EBEDED"/>
      <path d="M255.5,345.5 L285.5,345.5 L285.5,375.5 L255.5,375.5 L255.5,345.5 z" fill-opacity="0" stroke="#294270" stroke-width="2"/>
    </g>
    <g>
      <path d="M285.5,345.5 L315.5,345.5 L315.5,375.5 L285.5,375.5 L285.5,345.5 z" fill="#EBEDED"/>
      <path d="M285.5,345.5 L315.5,345.5 L315.5,375.5 L285.5,375.5 L285.5,345.5 z" fill-opacity="0" stroke="#294270" stroke-width="2"/>
    </g>
    <g>
      <path d="M315.5,345.5 L345.5,345.5 L345.5,375.5 L315.5,375.5 L315.5,345.5 z" fill="#EBEDED"/>
      <path d="M315.5,345.5 L345.5,345.5 L345.5,375.5 L315.5,375.5 L315.5,345.5 z" fill-opacity="0" stroke="#294270" stroke-width="2"/>
    </g>
    <g>
      <path d="M345.5,345.5 L375.5,345.5 L375.5,375.5 L345.5,375.5 L345.5,345.5 z" fill="#9D9E9E"/>
      <path d="M345.5,345.5 L375.5,345.5 L375.5,375.5 L345.5,375.5 L345.5,345.5 z" fill-opacity="0" stroke="#294270" stroke-width="2"/>
    </g>
    <g>
      <path d="M255.5,345.5 L285.5,345.5 L285.5,375.5 L255.5,375.5 L255.5,345.5 z" fill="#9FA0A0"/>
      <path d="M255.5,345.5 L285.5,345.5 L285.5,375.5 L255.5,375.5 L255.5,345.5 z" fill-opacity="0" stroke="#294270" stroke-width="2"/>
    </g>
    <g>
      <path d="M285.5,345.5 L315.5,345.5 L315.5,375.5 L285.5,375.5 L285.5,345.5 z" fill="#9FA0A0"/>
      <path d="M285.5,345.5 L315.5,345.5 L315.5,375.5 L285.5,375.5 L285.5,345.5 z" fill-opacity="0" stroke="#294270" stroke-width="2"/>
    </g>
    <g>
      <path d="M315.5,345.5 L345.5,345.5 L345.5,375.5 L315.5,375.5 L315.5,345.5 z" fill="#9FA0A0"/>
      <path d="M315.5,345.5 L345.5,345.5 L345.5,375.5 L315.5,375.5 L315.5,345.5 z" fill-opacity="0" stroke="#294270" stroke-width="2"/>
    </g>
    <g>
      <path d="M345.5,345.5 L375.5,345.5 L375.5,375.5 L345.5,375.5 L345.5,345.5 z" fill="#9D9E9E"/>
      <path d="M345.5,345.5 L375.5,345.5 L375.5,375.5 L345.5,375.5 L345.5,345.5 z" fill-opacity="0" stroke="#294270" stroke-width="2"/>
    </g>
    <g>
      <path d="M15.5,375.5 L45.5,375.5 L45.5,405.5 L15.5,405.5 L15.5,375.5 z" fill="#9D9E9E"/>
      <path d="M15.5,375.5 L45.5,375.5 L45.5,405.5 L15.5,405.5 L15.5,375.5 z" fill-opacity="0" stroke="#294270" stroke-width="2"/>
    </g>
    <g>
      <path d="M45.5,375.5 L75.5,375.5 L75.5,405.5 L45.5,405.5 L45.5,375.5 z" fill="#9D9E9E"/>
      <path d="M45.5,375.5 L75.5,375.5 L75.5,405.5 L45.5,405.5 L45.5,375.5 z" fill-opacity="0" stroke="#294270" stroke-width="2"/>
    </g>
    <g>
      <path d="M75.5,375.5 L105.5,375.5 L105.5,405.5 L75.5,405.5 L75.5,375.5 z" fill="#EBEDED"/>
      <path d="M75.5,375.5 L105.5,375.5 L105.5,405.5 L75.5,405.5 L75.5,375.5 z" fill-opacity="0" stroke="#294270" stroke-width="2"/>
    </g>
    <g>
      <path d="M105.5,375.5 L135.5,375.5 L135.5,405.5 L105.5,405.5 L105.5,375.5 z" fill="#294270"/>
      <path d="M105.5,375.5 L135.5,375.5 L135.5,405.5 L105.5,405.5 L105.5,375.5 z" fill-opacity="0" stroke="#294270" stroke-width="2"/>
    </g>
    <g>
      <path d="M135.5,375.5 L165.5,375.5 L165.5,405.5 L135.5,405.5 L135.5,375.5 z" fill="#294270"/>
      <path d="M135.5,375.5 L165.5,375.5 L165.5,405.5 L135.5,405.5 L135.5,375.5 z" fill-opacity="0" stroke="#294270" stroke-width="2"/>
    </g>
    <g>
      <path d="M165.5,375.5 L195.5,375.5 L195.5,405.5 L165.5,405.5 L165.5,375.5 z" fill="#294270"/>
      <path d="M165.5,375.5 L195.5,375.5 L195.5,405.5 L165.5,405.5 L165.5,375.5 z" fill-opacity="0" stroke="#294270" stroke-width="2"/>
    </g>
    <g>
      <path d="M195.5,375.5 L225.5,375.5 L225.5,405.5 L195.5,405.5 L195.5,375.5 z" fill="#EBEDED"/>
      <path d="M195.5,375.5 L225.5,375.5 L225.5,405.5 L195.5,405.5 L195.5,375.5 z" fill-opacity="0" stroke="#294270" stroke-width="2"/>
    </g>
    <g>
      <path d="M225.5,375.5 L255.5,375.5 L255.5,405.5 L225.5,405.5 L225.5,375.5 z" fill="#9FA0A0"/>
      <path d="M225.5,375.5 L255.5,375.5 L255.5,405.5 L225.5,405.5 L225.5,375.5 z" fill-opacity="0" stroke="#294270" stroke-width="2"/>
    </g>
    <g>
      <path d="M255.5,375.5 L285.5,375.5 L285.5,405.5 L255.5,405.5 L255.5,375.5 z" fill="#EBEDED"/>
      <path d="M255.5,375.5 L285.5,375.5 L285.5,405.5 L255.5,405.5 L255.5,375.5 z" fill-opacity="0" stroke="#294270" stroke-width="2"/>
    </g>
    <g>
      <path d="M285.5,375.5 L315.5,375.5 L315.5,405.5 L285.5,405.5 L285.5,375.5 z" fill="#EBEDED"/>
      <path d="M285.5,375.5 L315.5,375.5 L315.5,405.5 L285.5,405.5 L285.5,375.5 z" fill-opacity="0" stroke="#294270" stroke-width="2"/>
    </g>
    <g>
      <path d="M315.5,375.5 L345.5,375.5 L345.5,405.5 L315.5,405.5 L315.5,375.5 z" fill="#EBEDED"/>
      <path d="M315.5,375.5 L345.5,375.5 L345.5,405.5 L315.5,405.5 L315.5,375.5 z" fill-opacity="0" stroke="#294270" stroke-width="2"/>
    </g>
    <g>
      <path d="M345.5,375.5 L375.5,375.5 L375.5,405.5 L345.5,405.5 L345.5,375.5 z" fill="#9D9E9E"/>
      <path d="M345.5,375.5 L375.5,375.5 L375.5,405.5 L345.5,405.5 L345.5,375.5 z" fill-opacity="0" stroke="#294270" stroke-width="2"/>
    </g>
    <g>
      <path d="M255.5,375.5 L285.5,375.5 L285.5,405.5 L255.5,405.5 L255.5,375.5 z" fill="#EBEDED"/>
      <path d="M255.5,375.5 L285.5,375.5 L285.5,405.5 L255.5,405.5 L255.5,375.5 z" fill-opacity="0" stroke="#294270" stroke-width="2"/>
    </g>
    <g>
      <path d="M285.5,375.5 L315.5,375.5 L315.5,405.5 L285.5,405.5 L285.5,375.5 z" fill="#EBEDED"/>
      <path d="M285.5,375.5 L315.5,375.5 L315.5,405.5 L285.5,405.5 L285.5,375.5 z" fill-opacity="0" stroke="#294270" stroke-width="2"/>
    </g>
    <g>
      <path d="M315.5,375.5 L345.5,375.5 L345.5,405.5 L315.5,405.5 L315.5,375.5 z" fill="#EBEDED"/>
      <path d="M315.5,375.5 L345.5,375.5 L345.5,405.5 L315.5,405.5 L315.5,375.5 z" fill-opacity="0" stroke="#294270" stroke-width="2"/>
    </g>
    <g>
      <path d="M345.5,375.5 L375.5,375.5 L375.5,405.5 L345.5,405.5 L345.5,375.5 z" fill="#9D9E9E"/>
      <path d="M345.5,375.5 L375.5,375.5 L375.5,405.5 L345.5,405.5 L345.5,375.5 z" fill-opacity="0" stroke="#294270" stroke-width="2"/>
    </g>
    <g>
      <path d="M15.5,405.5 L45.5,405.5 L45.5,435.5 L15.5,435.5 L15.5,405.5 z" fill="#9D9E9E"/>
      <path d="M15.5,405.5 L45.5,405.5 L45.5,435.5 L15.5,435.5 L15.5,405.5 z" fill-opacity="0" stroke="#294270" stroke-width="2"/>
    </g>
    <g>
      <path d="M45.5,405.5 L75.5,405.5 L75.5,435.5 L45.5,435.5 L45.5,405.5 z" fill="#9D9E9E"/>
      <path d="M45.5,405.5 L75.5,405.5 L75.5,435.5 L45.5,435.5 L45.5,405.5 z" fill-opacity="0" stroke="#294270" stroke-width="2"/>
    </g>
    <g>
      <path d="M75.5,405.5 L105.5,405.5 L105.5,435.5 L75.5,435.5 L75.5,405.5 z" fill="#EBEDED"/>
      <path d="M75.5,405.5 L105.5,405.5 L105.5,435.5 L75.5,435.5 L75.5,405.5 z" fill-opacity="0" stroke="#294270" stroke-width="2"/>
    </g>
    <g>
      <path d="M105.5,405.5 L135.5,405.5 L135.5,435.5 L105.5,435.5 L105.5,405.5 z" fill="#EBEDED"/>
      <path d="M105.5,405.5 L135.5,405.5 L135.5,435.5 L105.5,435.5 L105.5,405.5 z" fill-opacity="0" stroke="#294270" stroke-width="2"/>
    </g>
    <g>
      <path d="M135.5,405.5 L165.5,405.5 L165.5,435.5 L135.5,435.5 L135.5,405.5 z" fill="#EBEDED"/>
      <path d="M135.5,405.5 L165.5,405.5 L165.5,435.5 L135.5,435.5 L135.5,405.5 z" fill-opacity="0" stroke="#294270" stroke-width="2"/>
    </g>
    <g>
      <path d="M165.5,405.5 L195.5,405.5 L195.5,435.5 L165.5,435.5 L165.5,405.5 z" fill="#9D9E9E"/>
      <path d="M165.5,405.5 L195.5,405.5 L195.5,435.5 L165.5,435.5 L165.5,405.5 z" fill-opacity="0" stroke="#294270" stroke-width="2"/>
    </g>
    <g>
      <path d="M195.5,405.5 L225.5,405.5 L225.5,435.5 L195.5,435.5 L195.5,405.5 z" fill="#EBEDED"/>
      <path d="M195.5,405.5 L225.5,405.5 L225.5,435.5 L195.5,435.5 L195.5,405.5 z" fill-opacity="0" stroke="#294270" stroke-width="2"/>
    </g>
    <g>
      <path d="M225.5,405.5 L255.5,405.5 L255.5,435.5 L225.5,435.5 L225.5,405.5 z" fill="#9FA0A0"/>
      <path d="M225.5,405.5 L255.5,405.5 L255.5,435.5 L225.5,435.5 L225.5,405.5 z" fill-opacity="0" stroke="#294270" stroke-width="2"/>
    </g>
    <g>
      <path d="M255.5,405.5 L285.5,405.5 L285.5,435.5 L255.5,435.5 L255.5,405.5 z" fill="#EBEDED"/>
      <path d="M255.5,405.5 L285.5,405.5 L285.5,435.5 L255.5,435.5 L255.5,405.5 z" fill-opacity="0" stroke="#294270" stroke-width="2"/>
    </g>
    <g>
      <path d="M285.5,405.5 L315.5,405.5 L315.5,435.5 L285.5,435.5 L285.5,405.5 z" fill="#EBEDED"/>
      <path d="M285.5,405.5 L315.5,405.5 L315.5,435.5 L285.5,435.5 L285.5,405.5 z" fill-opacity="0" stroke="#294270" stroke-width="2"/>
    </g>
    <g>
      <path d="M315.5,405.5 L345.5,405.5 L345.5,435.5 L315.5,435.5 L315.5,405.5 z" fill="#EBEDED"/>
      <path d="M315.5,405.5 L345.5,405.5 L345.5,435.5 L315.5,435.5 L315.5,405.5 z" fill-opacity="0" stroke="#294270" stroke-width="2"/>
    </g>
    <g>
      <path d="M345.5,405.5 L375.5,405.5 L375.5,435.5 L345.5,435.5 L345.5,405.5 z" fill="#9D9E9E"/>
      <path d="M345.5,405.5 L375.5,405.5 L375.5,435.5 L345.5,435.5 L345.5,405.5 z" fill-opacity="0" stroke="#294270" stroke-width="2"/>
    </g>
    <g>
      <path d="M255.5,405.5 L285.5,405.5 L285.5,435.5 L255.5,435.5 L255.5,405.5 z" fill="#9FA0A0"/>
      <path d="M255.5,405.5 L285.5,405.5 L285.5,435.5 L255.5,435.5 L255.5,405.5 z" fill-opacity="0" stroke="#294270" stroke-width="2"/>
    </g>
    <g>
      <path d="M285.5,405.5 L315.5,405.5 L315.5,435.5 L285.5,435.5 L285.5,405.5 z" fill="#9FA0A0"/>
      <path d="M285.5,405.5 L315.5,405.5 L315.5,435.5 L285.5,435.5 L285.5,405.5 z" fill-opacity="0" stroke="#294270" stroke-width="2"/>
    </g>
    <g>
      <path d="M315.5,405.5 L345.5,405.5 L345.5,435.5 L315.5,435.5 L315.5,405.5 z" fill="#EBEDED"/>
      <path d="M315.5,405.5 L345.5,405.5 L345.5,435.5 L315.5,435.5 L315.5,405.5 z" fill-opacity="0" stroke="#294270" stroke-width="2"/>
    </g>
    <g>
      <path d="M345.5,405.5 L375.5,405.5 L375.5,435.5 L345.5,435.5 L345.5,405.5 z" fill="#9D9E9E"/>
      <path d="M345.5,405.5 L375.5,405.5 L375.5,435.5 L345.5,435.5 L345.5,405.5 z" fill-opacity="0" stroke="#294270" stroke-width="2"/>
    </g>
    <g>
      <path d="M15.5,435.5 L45.5,435.5 L45.5,465.5 L15.5,465.5 L15.5,435.5 z" fill="#9D9E9E"/>
      <path d="M15.5,435.5 L45.5,435.5 L45.5,465.5 L15.5,465.5 L15.5,435.5 z" fill-opacity="0" stroke="#294270" stroke-width="2"/>
    </g>
    <g>
      <path d="M45.5,435.5 L75.5,435.5 L75.5,465.5 L45.5,465.5 L45.5,435.5 z" fill="#EBEDED"/>
      <path d="M45.5,435.5 L75.5,435.5 L75.5,465.5 L45.5,465.5 L45.5,435.5 z" fill-opacity="0" stroke="#294270" stroke-width="2"/>
    </g>
    <g>
      <path d="M75.5,435.5 L105.5,435.5 L105.5,465.5 L75.5,465.5 L75.5,435.5 z" fill="#EBEDED"/>
      <path d="M75.5,435.5 L105.5,435.5 L105.5,465.5 L75.5,465.5 L75.5,435.5 z" fill-opacity="0" stroke="#294270" stroke-width="2"/>
    </g>
    <g>
      <path d="M105.5,435.5 L135.5,435.5 L135.5,465.5 L105.5,465.5 L105.5,435.5 z" fill="#9D9E9E"/>
      <path d="M105.5,435.5 L135.5,435.5 L135.5,465.5 L105.5,465.5 L105.5,435.5 z" fill-opacity="0" stroke="#294270" stroke-width="2"/>
    </g>
    <g>
      <path d="M135.5,435.5 L165.5,435.5 L165.5,465.5 L135.5,465.5 L135.5,435.5 z" fill="#EBEDED"/>
      <path d="M135.5,435.5 L165.5,435.5 L165.5,465.5 L135.5,465.5 L135.5,435.5 z" fill-opacity="0" stroke="#294270" stroke-width="2"/>
    </g>
    <g>
      <path d="M165.5,435.5 L195.5,435.5 L195.5,465.5 L165.5,465.5 L165.5,435.5 z" fill="#EBEDED"/>
      <path d="M165.5,435.5 L195.5,435.5 L195.5,465.5 L165.5,465.5 L165.5,435.5 z" fill-opacity="0" stroke="#294270" stroke-width="2"/>
    </g>
    <g>
      <path d="M195.5,435.5 L225.5,435.5 L225.5,465.5 L195.5,465.5 L195.5,435.5 z" fill="#EBEDED"/>
      <path d="M195.5,435.5 L225.5,435.5 L225.5,465.5 L195.5,465.5 L195.5,435.5 z" fill-opacity="0" stroke="#294270" stroke-width="2"/>
    </g>
    <g>
      <path d="M225.5,435.5 L255.5,435.5 L255.5,465.5 L225.5,465.5 L225.5,435.5 z" fill="#EBEDED"/>
      <path d="M225.5,435.5 L255.5,435.5 L255.5,465.5 L225.5,465.5 L225.5,435.5 z" fill-opacity="0" stroke="#294270" stroke-width="2"/>
    </g>
    <g>
      <path d="M255.5,435.5 L285.5,435.5 L285.5,465.5 L255.5,465.5 L255.5,435.5 z" fill="#EBEDED"/>
      <path d="M255.5,435.5 L285.5,435.5 L285.5,465.5 L255.5,465.5 L255.5,435.5 z" fill-opacity="0" stroke="#294270" stroke-width="2"/>
    </g>
    <g>
      <path d="M285.5,435.5 L315.5,435.5 L315.5,465.5 L285.5,465.5 L285.5,435.5 z" fill="#EBEDED"/>
      <path d="M285.5,435.5 L315.5,435.5 L315.5,465.5 L285.5,465.5 L285.5,435.5 z" fill-opacity="0" stroke="#294270" stroke-width="2"/>
    </g>
    <g>
      <path d="M315.5,435.5 L345.5,435.5 L345.5,465.5 L315.5,465.5 L315.5,435.5 z" fill="#EBEDED"/>
      <path d="M315.5,435.5 L345.5,435.5 L345.5,465.5 L315.5,465.5 L315.5,435.5 z" fill-opacity="0" stroke="#294270" stroke-width="2"/>
    </g>
    <g>
      <path d="M345.5,435.5 L375.5,435.5 L375.5,465.5 L345.5,465.5 L345.5,435.5 z" fill="#9D9E9E"/>
      <path d="M345.5,435.5 L375.5,435.5 L375.5,465.5 L345.5,465.5 L345.5,435.5 z" fill-opacity="0" stroke="#294270" stroke-width="2"/>
    </g>
    <g>
      <path d="M255.5,435.5 L285.5,435.5 L285.5,465.5 L255.5,465.5 L255.5,435.5 z" fill="#EBEDED"/>
      <path d="M255.5,435.5 L285.5,435.5 L285.5,465.5 L255.5,465.5 L255.5,435.5 z" fill-opacity="0" stroke="#294270" stroke-width="2"/>
    </g>
    <g>
      <path d="M285.5,435.5 L315.5,435.5 L315.5,465.5 L285.5,465.5 L285.5,435.5 z" fill="#EBEDED"/>
      <path d="M285.5,435.5 L315.5,435.5 L315.5,465.5 L285.5,465.5 L285.5,435.5 z" fill-opacity="0" stroke="#294270" stroke-width="2"/>
    </g>
    <g>
      <path d="M315.5,435.5 L345.5,435.5 L345.5,465.5 L315.5,465.5 L315.5,435.5 z" fill="#EBEDED"/>
      <path d="M315.5,435.5 L345.5,435.5 L345.5,465.5 L315.5,465.5 L315.5,435.5 z" fill-opacity="0" stroke="#294270" stroke-width="2"/>
    </g>
    <g>
      <path d="M345.5,435.5 L375.5,435.5 L375.5,465.5 L345.5,465.5 L345.5,435.5 z" fill="#9D9E9E"/>
      <path d="M345.5,435.5 L375.5,435.5 L375.5,465.5 L345.5,465.5 L345.5,435.5 z" fill-opacity="0" stroke="#294270" stroke-width="2"/>
    </g>
    <g>
      <path d="M15.5,465.5 L45.5,465.5 L45.5,495.5 L15.5,495.5 L15.5,465.5 z" fill="#9D9E9E"/>
      <path d="M15.5,465.5 L45.5,465.5 L45.5,495.5 L15.5,495.5 L15.5,465.5 z" fill-opacity="0" stroke="#294270" stroke-width="2"/>
    </g>
    <g>
      <path d="M45.5,465.5 L75.5,465.5 L75.5,495.5 L45.5,495.5 L45.5,465.5 z" fill="#9D9E9E"/>
      <path d="M45.5,465.5 L75.5,465.5 L75.5,495.5 L45.5,495.5 L45.5,465.5 z" fill-opacity="0" stroke="#294270" stroke-width="2"/>
    </g>
    <g>
      <path d="M75.5,465.5 L105.5,465.5 L105.5,495.5 L75.5,495.5 L75.5,465.5 z" fill="#9D9E9E"/>
      <path d="M75.5,465.5 L105.5,465.5 L105.5,495.5 L75.5,495.5 L75.5,465.5 z" fill-opacity="0" stroke="#294270" stroke-width="2"/>
    </g>
    <g>
      <path d="M105.5,465.5 L135.5,465.5 L135.5,495.5 L105.5,495.5 L105.5,465.5 z" fill="#9D9E9E"/>
      <path d="M105.5,465.5 L135.5,465.5 L135.5,495.5 L105.5,495.5 L105.5,465.5 z" fill-opacity="0" stroke="#294270" stroke-width="2"/>
    </g>
    <g>
      <path d="M135.5,465.5 L165.5,465.5 L165.5,495.5 L135.5,495.5 L135.5,465.5 z" fill="#9D9E9E"/>
      <path d="M135.5,465.5 L165.5,465.5 L165.5,495.5 L135.5,495.5 L135.5,465.5 z" fill-opacity="0" stroke="#294270" stroke-width="2"/>
    </g>
    <g>
      <path d="M165.5,465.5 L195.5,465.5 L195.5,495.5 L165.5,495.5 L165.5,465.5 z" fill="#9D9E9E"/>
      <path d="M165.5,465.5 L195.5,465.5 L195.5,495.5 L165.5,495.5 L165.5,465.5 z" fill-opacity="0" stroke="#294270" stroke-width="2"/>
    </g>
    <g>
      <path d="M195.5,465.5 L225.5,465.5 L225.5,495.5 L195.5,495.5 L195.5,465.5 z" fill="#9D9E9E"/>
      <path d="M195.5,465.5 L225.5,465.5 L225.5,495.5 L195.5,495.5 L195.5,465.5 z" fill-opacity="0" stroke="#294270" stroke-width="2"/>
    </g>
    <g>
      <path d="M225.5,465.5 L255.5,465.5 L255.5,495.5 L225.5,495.5 L225.5,465.5 z" fill="#9D9E9E"/>
      <path d="M225.5,465.5 L255.5,465.5 L255.5,495.5 L225.5,495.5 L225.5,465.5 z" fill-opacity="0" stroke="#294270" stroke-width="2"/>
    </g>
    <g>
      <path d="M255.5,465.5 L285.5,465.5 L285.5,495.5 L255.5,495.5 L255.5,465.5 z" fill="#9D9E9E"/>
      <path d="M255.5,465.5 L285.5,465.5 L285.5,495.5 L255.5,495.5 L255.5,465.5 z" fill-opacity="0" stroke="#294270" stroke-width="2"/>
    </g>
    <g>
      <path d="M285.5,465.5 L315.5,465.5 L315.5,495.5 L285.5,495.5 L285.5,465.5 z" fill="#9D9E9E"/>
      <path d="M285.5,465.5 L315.5,465.5 L315.5,495.5 L285.5,495.5 L285.5,465.5 z" fill-opacity="0" stroke="#294270" stroke-width="2"/>
    </g>
    <g>
      <path d="M315.5,465.5 L345.5,465.5 L345.5,495.5 L315.5,495.5 L315.5,465.5 z" fill="#9D9E9E"/>
      <path d="M315.5,465.5 L345.5,465.5 L345.5,495.5 L315.5,495.5 L315.5,465.5 z" fill-opacity="0" stroke="#294270" stroke-width="2"/>
    </g>
    <g>
      <path d="M345.5,465.5 L375.5,465.5 L375.5,495.5 L345.5,495.5 L345.5,465.5 z" fill="#9D9E9E"/>
      <path d="M345.5,465.5 L375.5,465.5 L375.5,495.5 L345.5,495.5 L345.5,465.5 z" fill-opacity="0" stroke="#294270" stroke-width="2"/>
    </g>
    <g>
      <path d="M255.5,465.5 L285.5,465.5 L285.5,495.5 L255.5,495.5 L255.5,465.5 z" fill="#9D9E9E"/>
      <path d="M255.5,465.5 L285.5,465.5 L285.5,495.5 L255.5,495.5 L255.5,465.5 z" fill-opacity="0" stroke="#294270" stroke-width="2"/>
    </g>
    <g>
      <path d="M285.5,465.5 L315.5,465.5 L315.5,495.5 L285.5,495.5 L285.5,465.5 z" fill="#9D9E9E"/>
      <path d="M285.5,465.5 L315.5,465.5 L315.5,495.5 L285.5,495.5 L285.5,465.5 z" fill-opacity="0" stroke="#294270" stroke-width="2"/>
    </g>
    <g>
      <path d="M315.5,465.5 L345.5,465.5 L345.5,495.5 L315.5,495.5 L315.5,465.5 z" fill="#9D9E9E"/>
      <path d="M315.5,465.5 L345.5,465.5 L345.5,495.5 L315.5,495.5 L315.5,465.5 z" fill-opacity="0" stroke="#294270" stroke-width="2"/>
    </g>
    <g>
      <path d="M345.5,465.5 L375.5,465.5 L375.5,495.5 L345.5,495.5 L345.5,465.5 z" fill="#9D9E9E"/>
      <path d="M345.5,465.5 L375.5,465.5 L375.5,495.5 L345.5,495.5 L345.5,465.5 z" fill-opacity="0" stroke="#294270" stroke-width="2"/>
    </g>
    <g>
      <path d="M150.5,190.5 C144.977,190.5 140.5,186.023 140.5,180.5 C140.5,174.977 144.977,170.5 150.5,170.5 C156.023,170.5 160.5,174.977 160.5,180.5 C160.5,186.023 156.023,190.5 150.5,190.5 z" fill="#F0801A"/>
      <path d="M150.5,190.5 C144.977,190.5 140.5,186.023 140.5,180.5 C140.5,174.977 144.977,170.5 150.5,170.5 C156.023,170.5 160.5,174.977 160.5,180.5 C160.5,186.023 156.023,190.5 150.5,190.5 z" fill-opacity="0" stroke="#294270" stroke-width="2"/>
    </g>
    <text transform="matrix(1, 0, 0, 1, 330, 450)">
      <tspan x="-8.613" y="11" font-family="Roboto-Bold" font-size="30" fill="#65A1CF">E</tspan>
    </text>
    <g>
      <path d="M405.5,15.5 L435.5,15.5 L435.5,45.5 L405.5,45.5 L405.5,15.5 z" fill="#EBEDED"/>
      <path d="M405.5,15.5 L435.5,15.5 L435.5,45.5 L405.5,45.5 L405.5,15.5 z" fill-opacity="0" stroke="#294270" stroke-width="2"/>
    </g>
    <g>
      <path d="M435.5,15.5 L465.5,15.5 L465.5,45.5 L435.5,45.5 L435.5,15.5 z" fill="#EBEDED"/>
      <path d="M435.5,15.5 L465.5,15.5 L465.5,45.5 L435.5,45.5 L435.5,15.5 z" fill-opacity="0" stroke="#294270" stroke-width="2"/>
    </g>
    <g>
      <path d="M465.5,15.5 L495.5,15.5 L495.5,45.5 L465.5,45.5 L465.5,15.5 z" fill="#EBEDED"/>
      <path d="M465.5,15.5 L495.5,15.5 L495.5,45.5 L465.5,45.5 L465.5,15.5 z" fill-opacity="0" stroke="#294270" stroke-width="2"/>
    </g>
    <g>
      <path d="M495.5,15.5 L525.5,15.5 L525.5,45.5 L495.5,45.5 L495.5,15.5 z" fill="#294270"/>
      <path d="M495.5,15.5 L525.5,15.5 L525.5,45.5 L495.5,45.5 L495.5,15.5 z" fill-opacity="0" stroke="#294270" stroke-width="2"/>
    </g>
    <g>
      <path d="M525.5,15.5 L555.5,15.5 L555.5,45.5 L525.5,45.5 L525.5,15.5 z" fill="#294270"/>
      <path d="M525.5,15.5 L555.5,15.5 L555.5,45.5 L525.5,45.5 L525.5,15.5 z" fill-opacity="0" stroke="#294270" stroke-width="2"/>
    </g>
    <g>
      <path d="M555.5,15.5 L585.5,15.5 L585.5,45.5 L555.5,45.5 L555.5,15.5 z" fill="#294270"/>
      <path d="M555.5,15.5 L585.5,15.5 L585.5,45.5 L555.5,45.5 L555.5,15.5 z" fill-opacity="0" stroke="#294270" stroke-width="2"/>
    </g>
    <g>
      <path d="M405.5,45.5 L435.5,45.5 L435.5,75.5 L405.5,75.5 L405.5,45.5 z" fill="#EBEDED"/>
      <path d="M405.5,45.5 L435.5,45.5 L435.5,75.5 L405.5,75.5 L405.5,45.5 z" fill-opacity="0" stroke="#294270" stroke-width="2"/>
    </g>
    <g>
      <path d="M435.5,45.5 L465.5,45.5 L465.5,75.5 L435.5,75.5 L435.5,45.5 z" fill="#EBEDED"/>
      <path d="M435.5,45.5 L465.5,45.5 L465.5,75.5 L435.5,75.5 L435.5,45.5 z" fill-opacity="0" stroke="#294270" stroke-width="2"/>
    </g>
    <g>
      <path d="M465.5,45.5 L495.5,45.5 L495.5,75.5 L465.5,75.5 L465.5,45.5 z" fill="#EBEDED"/>
      <path d="M465.5,45.5 L495.5,45.5 L495.5,75.5 L465.5,75.5 L465.5,45.5 z" fill-opacity="0" stroke="#294270" stroke-width="2"/>
    </g>
    <g>
      <path d="M495.5,45.5 L525.5,45.5 L525.5,75.5 L495.5,75.5 L495.5,45.5 z" fill="#8FC7ED"/>
      <path d="M495.5,45.5 L525.5,45.5 L525.5,75.5 L495.5,75.5 L495.5,45.5 z" fill-opacity="0" stroke="#294270" stroke-width="2"/>
    </g>
    <g>
      <path d="M525.5,45.5 L555.5,45.5 L555.5,75.5 L525.5,75.5 L525.5,45.5 z" fill="#8FC7ED"/>
      <path d="M525.5,45.5 L555.5,45.5 L555.5,75.5 L525.5,75.5 L525.5,45.5 z" fill-opacity="0" stroke="#294270" stroke-width="2"/>
    </g>
    <g>
      <path d="M555.5,45.5 L585.5,45.5 L585.5,75.5 L555.5,75.5 L555.5,45.5 z" fill="#8FC7ED"/>
      <path d="M555.5,45.5 L585.5,45.5 L585.5,75.5 L555.5,75.5 L555.5,45.5 z" fill-opacity="0" stroke="#294270" stroke-width="2"/>
    </g>
    <g>
      <path d="M405.5,75.5 L435.5,75.5 L435.5,105.5 L405.5,105.5 L405.5,75.5 z" fill="#EBEDED"/>
      <path d="M405.5,75.5 L435.5,75.5 L435.5,105.5 L405.5,105.5 L405.5,75.5 z" fill-opacity="0" stroke="#294270" stroke-width="2"/>
    </g>
    <g>
      <path d="M435.5,75.5 L465.5,75.5 L465.5,105.5 L435.5,105.5 L435.5,75.5 z" fill="#EBEDED"/>
      <path d="M435.5,75.5 L465.5,75.5 L465.5,105.5 L435.5,105.5 L435.5,75.5 z" fill-opacity="0" stroke="#294270" stroke-width="2"/>
    </g>
    <g>
      <path d="M465.5,75.5 L495.5,75.5 L495.5,105.5 L465.5,105.5 L465.5,75.5 z" fill="#EBEDED"/>
      <path d="M465.5,75.5 L495.5,75.5 L495.5,105.5 L465.5,105.5 L465.5,75.5 z" fill-opacity="0" stroke="#294270" stroke-width="2"/>
    </g>
    <g>
      <path d="M495.5,75.5 L525.5,75.5 L525.5,105.5 L495.5,105.5 L495.5,75.5 z" fill="#294270"/>
      <path d="M495.5,75.5 L525.5,75.5 L525.5,105.5 L495.5,105.5 L495.5,75.5 z" fill-opacity="0" stroke="#294270" stroke-width="2"/>
    </g>
    <g>
      <path d="M525.5,75.5 L555.5,75.5 L555.5,105.5 L525.5,105.5 L525.5,75.5 z" fill="#8FC7ED"/>
      <path d="M525.5,75.5 L555.5,75.5 L555.5,105.5 L525.5,105.5 L525.5,75.5 z" fill-opacity="0" stroke="#294270" stroke-width="2"/>
    </g>
    <g>
      <path d="M555.5,75.5 L585.5,75.5 L585.5,105.5 L555.5,105.5 L555.5,75.5 z" fill="#294270"/>
      <path d="M555.5,75.5 L585.5,75.5 L585.5,105.5 L555.5,105.5 L555.5,75.5 z" fill-opacity="0" stroke="#294270" stroke-width="2"/>
    </g>
    <g>
      <path d="M405.5,105.5 L435.5,105.5 L435.5,135.5 L405.5,135.5 L405.5,105.5 z" fill="#294270"/>
      <path d="M405.5,105.5 L435.5,105.5 L435.5,135.5 L405.5,135.5 L405.5,105.5 z" fill-opacity="0" stroke="#294270" stroke-width="2"/>
    </g>
    <g>
      <path d="M435.5,105.5 L465.5,105.5 L465.5,135.5 L435.5,135.5 L435.5,105.5 z" fill="#294270"/>
      <path d="M435.5,105.5 L465.5,105.5 L465.5,135.5 L435.5,135.5 L435.5,105.5 z" fill-opacity="0" stroke="#294270" stroke-width="2"/>
    </g>
    <g>
      <path d="M465.5,105.5 L495.5,105.5 L495.5,135.5 L465.5,135.5 L465.5,105.5 z" fill="#294270"/>
      <path d="M465.5,105.5 L495.5,105.5 L495.5,135.5 L465.5,135.5 L465.5,105.5 z" fill-opacity="0" stroke="#294270" stroke-width="2"/>
    </g>
    <g>
      <path d="M495.5,105.5 L525.5,105.5 L525.5,135.5 L495.5,135.5 L495.5,105.5 z" fill="#294270"/>
      <path d="M495.5,105.5 L525.5,105.5 L525.5,135.5 L495.5,135.5 L495.5,105.5 z" fill-opacity="0" stroke="#294270" stroke-width="2"/>
    </g>
    <g>
      <path d="M525.5,105.5 L555.5,105.5 L555.5,135.5 L525.5,135.5 L525.5,105.5 z" fill="#8FC7ED"/>
      <path d="M525.5,105.5 L555.5,105.5 L555.5,135.5 L525.5,135.5 L525.5,105.5 z" fill-opacity="0" stroke="#294270" stroke-width="2"/>
    </g>
    <g>
      <path d="M555.5,105.5 L585.5,105.5 L585.5,135.5 L555.5,135.5 L555.5,105.5 z" fill="#294270"/>
      <path d="M555.5,105.5 L585.5,105.5 L585.5,135.5 L555.5,135.5 L555.5,105.5 z" fill-opacity="0" stroke="#294270" stroke-width="2"/>
    </g>
    <g>
      <path d="M405.5,135.5 L435.5,135.5 L435.5,165.5 L405.5,165.5 L405.5,135.5 z" fill="#294270"/>
      <path d="M405.5,135.5 L435.5,135.5 L435.5,165.5 L405.5,165.5 L405.5,135.5 z" fill-opacity="0" stroke="#294270" stroke-width="2"/>
    </g>
    <g>
      <path d="M435.5,135.5 L465.5,135.5 L465.5,165.5 L435.5,165.5 L435.5,135.5 z" fill="#8FC7ED"/>
      <path d="M435.5,135.5 L465.5,135.5 L465.5,165.5 L435.5,165.5 L435.5,135.5 z" fill-opacity="0" stroke="#294270" stroke-width="2"/>
    </g>
    <g>
      <path d="M465.5,135.5 L495.5,135.5 L495.5,165.5 L465.5,165.5 L465.5,135.5 z" fill="#8FC7ED"/>
      <path d="M465.5,135.5 L495.5,135.5 L495.5,165.5 L465.5,165.5 L465.5,135.5 z" fill-opacity="0" stroke="#294270" stroke-width="2"/>
    </g>
    <g>
      <path d="M495.5,135.5 L525.5,135.5 L525.5,165.5 L495.5,165.5 L495.5,135.5 z" fill="#8FC7ED"/>
      <path d="M495.5,135.5 L525.5,135.5 L525.5,165.5 L495.5,165.5 L495.5,135.5 z" fill-opacity="0" stroke="#294270" stroke-width="2"/>
    </g>
    <g>
      <path d="M525.5,135.5 L555.5,135.5 L555.5,165.5 L525.5,165.5 L525.5,135.5 z" fill="#8FC7ED"/>
      <path d="M525.5,135.5 L555.5,135.5 L555.5,165.5 L525.5,165.5 L525.5,135.5 z" fill-opacity="0" stroke="#294270" stroke-width="2"/>
    </g>
    <g>
      <path d="M555.5,135.5 L585.5,135.5 L585.5,165.5 L555.5,165.5 L555.5,135.5 z" fill="#294270"/>
      <path d="M555.5,135.5 L585.5,135.5 L585.5,165.5 L555.5,165.5 L555.5,135.5 z" fill-opacity="0" stroke="#294270" stroke-width="2"/>
    </g>
    <g>
      <path d="M405.5,165.5 L435.5,165.5 L435.5,195.5 L405.5,195.5 L405.5,165.5 z" fill="#294270"/>
      <path d="M405.5,165.5 L435.5,165.5 L435.5,195.5 L405.5,195.5 L405.5,165.5 z" fill-opacity="0" stroke="#294270" stroke-width="2"/>
    </g>
    <g>
      <path d="M435.5,165.5 L465.5,165.5 L465.5,195.5 L435.5,195.5 L435.5,165.5 z" fill="#294270"/>
      <path d="M435.5,165.5 L465.5,165.5 L465.5,195.5 L435.5,195.5 L435.5,165.5 z" fill-opacity="0" stroke="#294270" stroke-width="2"/>
    </g>
    <g>
      <path d="M465.5,165.5 L495.5,165.5 L495.5,195.5 L465.5,195.5 L465.5,165.5 z" fill="#294270"/>
      <path d="M465.5,165.5 L495.5,165.5 L495.5,195.5 L465.5,195.5 L465.5,165.5 z" fill-opacity="0" stroke="#294270" stroke-width="2"/>
    </g>
    <g>
      <path d="M495.5,165.5 L525.5,165.5 L525.5,195.5 L495.5,195.5 L495.5,165.5 z" fill="#294270"/>
      <path d="M495.5,165.5 L525.5,165.5 L525.5,195.5 L495.5,195.5 L495.5,165.5 z" fill-opacity="0" stroke="#294270" stroke-width="2"/>
    </g>
    <g>
      <path d="M525.5,165.5 L555.5,165.5 L555.5,195.5 L525.5,195.5 L525.5,165.5 z" fill="#8FC7ED"/>
      <path d="M525.5,165.5 L555.5,165.5 L555.5,195.5 L525.5,195.5 L525.5,165.5 z" fill-opacity="0" stroke="#294270" stroke-width="2"/>
    </g>
    <g>
      <path d="M555.5,165.5 L585.5,165.5 L585.5,195.5 L555.5,195.5 L555.5,165.5 z" fill="#294270"/>
      <path d="M555.5,165.5 L585.5,165.5 L585.5,195.5 L555.5,195.5 L555.5,165.5 z" fill-opacity="0" stroke="#294270" stroke-width="2"/>
    </g>
    <g>
      <path d="M405.5,195.5 L435.5,195.5 L435.5,225.5 L405.5,225.5 L405.5,195.5 z" fill="#EBEDED"/>
      <path d="M405.5,195.5 L435.5,195.5 L435.5,225.5 L405.5,225.5 L405.5,195.5 z" fill-opacity="0" stroke="#294270" stroke-width="2"/>
    </g>
    <g>
      <path d="M435.5,195.5 L465.5,195.5 L465.5,225.5 L435.5,225.5 L435.5,195.5 z" fill="#EBEDED"/>
      <path d="M435.5,195.5 L465.5,195.5 L465.5,225.5 L435.5,225.5 L435.5,195.5 z" fill-opacity="0" stroke="#294270" stroke-width="2"/>
    </g>
    <g>
      <path d="M465.5,195.5 L495.5,195.5 L495.5,225.5 L465.5,225.5 L465.5,195.5 z" fill="#EBEDED"/>
      <path d="M465.5,195.5 L495.5,195.5 L495.5,225.5 L465.5,225.5 L465.5,195.5 z" fill-opacity="0" stroke="#294270" stroke-width="2"/>
    </g>
    <g>
      <path d="M495.5,195.5 L525.5,195.5 L525.5,225.5 L495.5,225.5 L495.5,195.5 z" fill="#294270"/>
      <path d="M495.5,195.5 L525.5,195.5 L525.5,225.5 L495.5,225.5 L495.5,195.5 z" fill-opacity="0" stroke="#294270" stroke-width="2"/>
    </g>
    <g>
      <path d="M525.5,195.5 L555.5,195.5 L555.5,225.5 L525.5,225.5 L525.5,195.5 z" fill="#8FC7ED"/>
      <path d="M525.5,195.5 L555.5,195.5 L555.5,225.5 L525.5,225.5 L525.5,195.5 z" fill-opacity="0" stroke="#294270" stroke-width="2"/>
    </g>
    <g>
      <path d="M555.5,195.5 L585.5,195.5 L585.5,225.5 L555.5,225.5 L555.5,195.5 z" fill="#294270"/>
      <path d="M555.5,195.5 L585.5,195.5 L585.5,225.5 L555.5,225.5 L555.5,195.5 z" fill-opacity="0" stroke="#294270" stroke-width="2"/>
    </g>
    <g>
      <path d="M405.5,225.5 L435.5,225.5 L435.5,255.5 L405.5,255.5 L405.5,225.5 z" fill="#EBEDED"/>
      <path d="M405.5,225.5 L435.5,225.5 L435.5,255.5 L405.5,255.5 L405.5,225.5 z" fill-opacity="0" stroke="#294270" stroke-width="2"/>
    </g>
    <g>
      <path d="M435.5,225.5 L465.5,225.5 L465.5,255.5 L435.5,255.5 L435.5,225.5 z" fill="#EBEDED"/>
      <path d="M435.5,225.5 L465.5,225.5 L465.5,255.5 L435.5,255.5 L435.5,225.5 z" fill-opacity="0" stroke="#294270" stroke-width="2"/>
    </g>
    <g>
      <path d="M465.5,225.5 L495.5,225.5 L495.5,255.5 L465.5,255.5 L465.5,225.5 z" fill="#EBEDED"/>
      <path d="M465.5,225.5 L495.5,225.5 L495.5,255.5 L465.5,255.5 L465.5,225.5 z" fill-opacity="0" stroke="#294270" stroke-width="2"/>
    </g>
    <g>
      <path d="M495.5,225.5 L525.5,225.5 L525.5,255.5 L495.5,255.5 L495.5,225.5 z" fill="#8FC7ED"/>
      <path d="M495.5,225.5 L525.5,225.5 L525.5,255.5 L495.5,255.5 L495.5,225.5 z" fill-opacity="0" stroke="#294270" stroke-width="2"/>
    </g>
    <g>
      <path d="M525.5,225.5 L555.5,225.5 L555.5,255.5 L525.5,255.5 L525.5,225.5 z" fill="#8FC7ED"/>
      <path d="M525.5,225.5 L555.5,225.5 L555.5,255.5 L525.5,255.5 L525.5,225.5 z" fill-opacity="0" stroke="#294270" stroke-width="2"/>
    </g>
    <g>
      <path d="M555.5,225.5 L585.5,225.5 L585.5,255.5 L555.5,255.5 L555.5,225.5 z" fill="#8FC7ED"/>
      <path d="M555.5,225.5 L585.5,225.5 L585.5,255.5 L555.5,255.5 L555.5,225.5 z" fill-opacity="0" stroke="#294270" stroke-width="2"/>
    </g>
    <g>
      <path d="M405.5,255.5 L435.5,255.5 L435.5,285.5 L405.5,285.5 L405.5,255.5 z" fill="#EBEDED"/>
      <path d="M405.5,255.5 L435.5,255.5 L435.5,285.5 L405.5,285.5 L405.5,255.5 z" fill-opacity="0" stroke="#294270" stroke-width="2"/>
    </g>
    <g>
      <path d="M435.5,255.5 L465.5,255.5 L465.5,285.5 L435.5,285.5 L435.5,255.5 z" fill="#EBEDED"/>
      <path d="M435.5,255.5 L465.5,255.5 L465.5,285.5 L435.5,285.5 L435.5,255.5 z" fill-opacity="0" stroke="#294270" stroke-width="2"/>
    </g>
    <g>
      <path d="M465.5,255.5 L495.5,255.5 L495.5,285.5 L465.5,285.5 L465.5,255.5 z" fill="#EBEDED"/>
      <path d="M465.5,255.5 L495.5,255.5 L495.5,285.5 L465.5,285.5 L465.5,255.5 z" fill-opacity="0" stroke="#294270" stroke-width="2"/>
    </g>
    <g>
      <path d="M495.5,255.5 L525.5,255.5 L525.5,285.5 L495.5,285.5 L495.5,255.5 z" fill="#294270"/>
      <path d="M495.5,255.5 L525.5,255.5 L525.5,285.5 L495.5,285.5 L495.5,255.5 z" fill-opacity="0" stroke="#294270" stroke-width="2"/>
    </g>
    <g>
      <path d="M525.5,255.5 L555.5,255.5 L555.5,285.5 L525.5,285.5 L525.5,255.5 z" fill="#8FC7ED"/>
      <path d="M525.5,255.5 L555.5,255.5 L555.5,285.5 L525.5,285.5 L525.5,255.5 z" fill-opacity="0" stroke="#294270" stroke-width="2"/>
    </g>
    <g>
      <path d="M555.5,255.5 L585.5,255.5 L585.5,285.5 L555.5,285.5 L555.5,255.5 z" fill="#294270"/>
      <path d="M555.5,255.5 L585.5,255.5 L585.5,285.5 L555.5,285.5 L555.5,255.5 z" fill-opacity="0" stroke="#294270" stroke-width="2"/>
    </g>
    <g>
      <path d="M405.5,285.5 L435.5,285.5 L435.5,315.5 L405.5,315.5 L405.5,285.5 z" fill="#EBEDED"/>
      <path d="M405.5,285.5 L435.5,285.5 L435.5,315.5 L405.5,315.5 L405.5,285.5 z" fill-opacity="0" stroke="#294270" stroke-width="2"/>
    </g>
    <g>
      <path d="M435.5,285.5 L465.5,285.5 L465.5,315.5 L435.5,315.5 L435.5,285.5 z" fill="#EBEDED"/>
      <path d="M435.5,285.5 L465.5,285.5 L465.5,315.5 L435.5,315.5 L435.5,285.5 z" fill-opacity="0" stroke="#294270" stroke-width="2"/>
    </g>
    <g>
      <path d="M465.5,285.5 L495.5,285.5 L495.5,315.5 L465.5,315.5 L465.5,285.5 z" fill="#EBEDED"/>
      <path d="M465.5,285.5 L495.5,285.5 L495.5,315.5 L465.5,315.5 L465.5,285.5 z" fill-opacity="0" stroke="#294270" stroke-width="2"/>
    </g>
    <g>
      <path d="M495.5,285.5 L525.5,285.5 L525.5,315.5 L495.5,315.5 L495.5,285.5 z" fill="#294270"/>
      <path d="M495.5,285.5 L525.5,285.5 L525.5,315.5 L495.5,315.5 L495.5,285.5 z" fill-opacity="0" stroke="#294270" stroke-width="2"/>
    </g>
    <g>
      <path d="M525.5,285.5 L555.5,285.5 L555.5,315.5 L525.5,315.5 L525.5,285.5 z" fill="#8FC7ED"/>
      <path d="M525.5,285.5 L555.5,285.5 L555.5,315.5 L525.5,315.5 L525.5,285.5 z" fill-opacity="0" stroke="#294270" stroke-width="2"/>
    </g>
    <g>
      <path d="M555.5,285.5 L585.5,285.5 L585.5,315.5 L555.5,315.5 L555.5,285.5 z" fill="#294270"/>
      <path d="M555.5,285.5 L585.5,285.5 L585.5,315.5 L555.5,315.5 L555.5,285.5 z" fill-opacity="0" stroke="#294270" stroke-width="2"/>
    </g>
    <g>
      <path d="M405.5,315.5 L435.5,315.5 L435.5,345.5 L405.5,345.5 L405.5,315.5 z" fill="#EBEDED"/>
      <path d="M405.5,315.5 L435.5,315.5 L435.5,345.5 L405.5,345.5 L405.5,315.5 z" fill-opacity="0" stroke="#294270" stroke-width="2"/>
    </g>
    <g>
      <path d="M435.5,315.5 L465.5,315.5 L465.5,345.5 L435.5,345.5 L435.5,315.5 z" fill="#EBEDED"/>
      <path d="M435.5,315.5 L465.5,315.5 L465.5,345.5 L435.5,345.5 L435.5,315.5 z" fill-opacity="0" stroke="#294270" stroke-width="2"/>
    </g>
    <g>
      <path d="M465.5,315.5 L495.5,315.5 L495.5,345.5 L465.5,345.5 L465.5,315.5 z" fill="#EBEDED"/>
      <path d="M465.5,315.5 L495.5,315.5 L495.5,345.5 L465.5,345.5 L465.5,315.5 z" fill-opacity="0" stroke="#294270" stroke-width="2"/>
    </g>
    <g>
      <path d="M495.5,315.5 L525.5,315.5 L525.5,345.5 L495.5,345.5 L495.5,315.5 z" fill="#8FC7ED"/>
      <path d="M495.5,315.5 L525.5,315.5 L525.5,345.5 L495.5,345.5 L495.5,315.5 z" fill-opacity="0" stroke="#294270" stroke-width="2"/>
    </g>
    <g>
      <path d="M525.5,315.5 L555.5,315.5 L555.5,345.5 L525.5,345.5 L525.5,315.5 z" fill="#8FC7ED"/>
      <path d="M525.5,315.5 L555.5,315.5 L555.5,345.5 L525.5,345.5 L525.5,315.5 z" fill-opacity="0" stroke="#294270" stroke-width="2"/>
    </g>
    <g>
      <path d="M555.5,315.5 L585.5,315.5 L585.5,345.5 L555.5,345.5 L555.5,315.5 z" fill="#294270"/>
      <path d="M555.5,315.5 L585.5,315.5 L585.5,345.5 L555.5,345.5 L555.5,315.5 z" fill-opacity="0" stroke="#294270" stroke-width="2"/>
    </g>
    <g>
      <path d="M405.5,345.5 L435.5,345.5 L435.5,375.5 L405.5,375.5 L405.5,345.5 z" fill="#EBEDED"/>
      <path d="M405.5,345.5 L435.5,345.5 L435.5,375.5 L405.5,375.5 L405.5,345.5 z" fill-opacity="0" stroke="#294270" stroke-width="2"/>
    </g>
    <g>
      <path d="M435.5,345.5 L465.5,345.5 L465.5,375.5 L435.5,375.5 L435.5,345.5 z" fill="#EBEDED"/>
      <path d="M435.5,345.5 L465.5,345.5 L465.5,375.5 L435.5,375.5 L435.5,345.5 z" fill-opacity="0" stroke="#294270" stroke-width="2"/>
    </g>
    <g>
      <path d="M465.5,345.5 L495.5,345.5 L495.5,375.5 L465.5,375.5 L465.5,345.5 z" fill="#EBEDED"/>
      <path d="M465.5,345.5 L495.5,345.5 L495.5,375.5 L465.5,375.5 L465.5,345.5 z" fill-opacity="0" stroke="#294270" stroke-width="2"/>
    </g>
    <g>
      <path d="M495.5,345.5 L525.5,345.5 L525.5,375.5 L495.5,375.5 L495.5,345.5 z" fill="#294270"/>
      <path d="M495.5,345.5 L525.5,345.5 L525.5,375.5 L495.5,375.5 L495.5,345.5 z" fill-opacity="0" stroke="#294270" stroke-width="2"/>
    </g>
    <g>
      <path d="M525.5,345.5 L555.5,345.5 L555.5,375.5 L525.5,375.5 L525.5,345.5 z" fill="#294270"/>
      <path d="M525.5,345.5 L555.5,345.5 L555.5,375.5 L525.5,375.5 L525.5,345.5 z" fill-opacity="0" stroke="#294270" stroke-width="2"/>
    </g>
    <g>
      <path d="M555.5,345.5 L585.5,345.5 L585.5,375.5 L555.5,375.5 L555.5,345.5 z" fill="#294270"/>
      <path d="M555.5,345.5 L585.5,345.5 L585.5,375.5 L555.5,375.5 L555.5,345.5 z" fill-opacity="0" stroke="#294270" stroke-width="2"/>
    </g>
    <g>
      <path d="M540.5,160.5 C534.977,160.5 530.5,156.023 530.5,150.5 C530.5,144.977 534.977,140.5 540.5,140.5 C546.023,140.5 550.5,144.977 550.5,150.5 C550.5,156.023 546.023,160.5 540.5,160.5 z" fill="#F0801A"/>
      <path d="M540.5,160.5 C534.977,160.5 530.5,156.023 530.5,150.5 C530.5,144.977 534.977,140.5 540.5,140.5 C546.023,140.5 550.5,144.977 550.5,150.5 C550.5,156.023 546.023,160.5 540.5,160.5 z" fill-opacity="0" stroke="#294270" stroke-width="2"/>
    </g>
  </g>
</svg>
